<?xml version="1.0" encoding="UTF-8"?>
<svg id="Layer_1" data-name="Layer 1" xmlns="http://www.w3.org/2000/svg" xmlns:xlink="http://www.w3.org/1999/xlink" viewBox="0 0 118.1 118.56">
  <defs>
    <style>
      .cls-1 {
        fill: none;
      }

      .cls-2 {
        fill: #611ca6;
      }

      .cls-3 {
        clip-path: url(#clippath-1);
      }

      .cls-4 {
        fill: #fff;
      }

      .cls-5 {
        opacity: .9;
      }

      .cls-6 {
        opacity: .77;
      }

      .cls-7 {
        fill: #8b3dd9;
      }

      .cls-8 {
        fill: #daa2f2;
      }

      .cls-9 {
        clip-path: url(#clippath);
      }
    </style>
    <clipPath id="clippath">
      <rect class="cls-1" width="118.1" height="118.56"/>
    </clipPath>
    <clipPath id="clippath-1">
      <rect class="cls-1" x="51.07" width="28.59" height="28.58"/>
    </clipPath>
  </defs>
  <g class="cls-5">
    <g class="cls-9">
      <path class="cls-2" d="M89.05,81.95c8.51,10.89,19.72,13.47,25.94,22.1,6.21,8.63,1.21,12.6,1.21,12.6,0,0-3.97,5-12.6-1.21-8.63-6.21-11.22-17.43-22.1-25.94l7.55-7.55Z"/>
      <polygon class="cls-2" points="65.62 0 0 0 0 112.16 79.66 112.16 79.66 14.03 65.62 0"/>
      <g class="cls-6">
        <g class="cls-3">
          <polygon class="cls-7" points="51.07 0 51.07 28.58 79.66 28.58 79.66 14.03 65.62 0 51.07 0"/>
        </g>
      </g>
      <path class="cls-8" d="M70.61,46.05c13.81,0,25.01,11.2,25.01,25.01s-11.2,25.01-25.01,25.01-25.01-11.2-25.01-25.01,11.2-25.01,25.01-25.01"/>
      <path class="cls-4" d="M70.61,53.38c9.77,0,17.69,7.92,17.69,17.69s-7.92,17.69-17.69,17.69-17.69-7.92-17.69-17.69,7.92-17.69,17.69-17.69"/>
      <path class="cls-2" d="M77.26,73.1h-13.29c-1.12,0-2.04-.91-2.04-2.04s.91-2.04,2.04-2.04h13.29c1.12,0,2.04.91,2.04,2.04s-.91,2.04-2.04,2.04"/>
    </g>
  </g>
</svg>