<svg viewBox="0 0 118.1 118.56" xmlns="http://www.w3.org/2000/svg" xmlns:xlink="http://www.w3.org/1999/xlink"><clipPath id="a"><path d="m0 0h118.1v118.56h-118.1z"/></clipPath><clipPath id="b"><path d="m51.07 0h28.59v28.58h-28.59z"/></clipPath><g clip-path="url(#a)" opacity=".9"><path d="m89.05 81.95c8.51 10.89 19.72 13.47 25.94 22.1 6.21 8.63 1.21 12.6 1.21 12.6s-3.97 5-12.6-1.21-11.22-17.43-22.1-25.94z" fill="#611ca6"/><path d="m65.62 0h-65.62v112.16h79.66v-98.13z" fill="#611ca6"/><g clip-path="url(#b)" opacity=".77"><path d="m51.07 0v28.58h28.59v-14.55l-14.04-14.03z" fill="#8b3dd9"/></g><path d="m70.61 46.05c13.81 0 25.01 11.2 25.01 25.01s-11.2 25.01-25.01 25.01-25.01-11.2-25.01-25.01 11.2-25.01 25.01-25.01" fill="#daa2f2"/><path d="m70.61 53.38c9.77 0 17.69 7.92 17.69 17.69s-7.92 17.69-17.69 17.69-17.69-7.92-17.69-17.69 7.92-17.69 17.69-17.69" fill="#fff"/><path d="m77.26 73.1h-13.29c-1.12 0-2.04-.91-2.04-2.04s.91-2.04 2.04-2.04h13.29c1.12 0 2.04.91 2.04 2.04s-.91 2.04-2.04 2.04" fill="#611ca6"/></g></svg>