<?xml version="1.0" encoding="UTF-8"?>
<svg id="Layer_1" data-name="Layer 1" xmlns="http://www.w3.org/2000/svg" xmlns:xlink="http://www.w3.org/1999/xlink" viewBox="0 0 124.18 94.34">
  <defs>
    <style>
      .cls-1 {
        fill: none;
      }

      .cls-2 {
        fill: #611ca6;
      }

      .cls-3 {
        opacity: .86;
      }

      .cls-4 {
        clip-path: url(#clippath);
      }
    </style>
    <clipPath id="clippath">
      <rect class="cls-1" width="124.18" height="94.34"/>
    </clipPath>
  </defs>
  <g class="cls-3">
    <g class="cls-4">
      <g>
        <path class="cls-2" d="M67.28,22.99v-9c0-.77-.62-1.38-1.38-1.38h-7.62c-.77,0-1.38.62-1.38,1.38v9h-9c-.77,0-1.38.62-1.38,1.38v7.62c0,.77.62,1.38,1.38,1.38h9v8.99c0,.77.62,1.38,1.38,1.38h7.62c.77,0,1.38-.62,1.38-1.38v-8.99h9c.77,0,1.38-.62,1.38-1.38v-7.62c0-.77-.62-1.38-1.38-1.38h-9Z"/>
        <path class="cls-2" d="M120.03,0H4.15C1.86,0,0,1.85,0,4.15v17.69c0,2.29,1.85,4.15,4.15,4.15h10.06v65.57c0,1.53,1.24,2.77,2.77,2.77h20.47c1.53,0,2.77-1.24,2.77-2.77v-35.21h43.74v35.21c0,1.53,1.24,2.77,2.77,2.77h20.48c1.53,0,2.77-1.24,2.77-2.77V26h10.05c2.29,0,4.15-1.86,4.15-4.15V4.15C124.19,1.86,122.33,0,120.04,0M62.09,48.94c-11.47,0-20.77-9.3-20.77-20.77S50.62,7.4,62.09,7.4s20.77,9.3,20.77,20.77-9.3,20.77-20.77,20.77"/>
      </g>
    </g>
  </g>
</svg>