<svg viewBox="0 0 124.18 94.34" xmlns="http://www.w3.org/2000/svg" xmlns:xlink="http://www.w3.org/1999/xlink"><clipPath id="a"><path d="m0 0h124.18v94.34h-124.18z"/></clipPath><g clip-path="url(#a)" fill="#611ca6" opacity=".86"><path d="m67.28 22.99v-9c0-.77-.62-1.38-1.38-1.38h-7.62c-.77 0-1.38.62-1.38 1.38v9h-9c-.77 0-1.38.62-1.38 1.38v7.62c0 .77.62 1.38 1.38 1.38h9v8.99c0 .77.62 1.38 1.38 1.38h7.62c.77 0 1.38-.62 1.38-1.38v-8.99h9c.77 0 1.38-.62 1.38-1.38v-7.62c0-.77-.62-1.38-1.38-1.38z"/><path d="m120.03 0h-115.88c-2.29 0-4.15 1.85-4.15 4.15v17.69c0 2.29 1.85 4.15 4.15 4.15h10.06v65.57c0 1.53 1.24 2.77 2.77 2.77h20.47c1.53 0 2.77-1.24 2.77-2.77v-35.21h43.74v35.21c0 1.53 1.24 2.77 2.77 2.77h20.48c1.53 0 2.77-1.24 2.77-2.77v-65.56h10.05c2.29 0 4.15-1.86 4.15-4.15v-17.7c.01-2.29-1.85-4.15-4.14-4.15m-57.95 48.94c-11.47 0-20.77-9.3-20.77-20.77s9.3-20.77 20.77-20.77 20.77 9.3 20.77 20.77-9.3 20.77-20.77 20.77"/></g></svg>