<?xml version="1.0" encoding="UTF-8"?>
<svg id="Layer_1" data-name="Layer 1" xmlns="http://www.w3.org/2000/svg" xmlns:xlink="http://www.w3.org/1999/xlink" viewBox="0 0 128 128">
  <defs>
    <style>
      .cls-1 {
        fill: none;
      }

      .cls-2 {
        fill: #611ca6;
      }

      .cls-3 {
        clip-path: url(#clippath-1);
      }

      .cls-4 {
        fill: #fff;
      }

      .cls-5 {
        opacity: .87;
      }

      .cls-6 {
        fill: #8b3dd9;
      }

      .cls-7 {
        clip-path: url(#clippath);
      }
    </style>
    <clipPath id="clippath">
      <rect class="cls-1" x="-109.35" y="-318.17" width="1456.92" height="531.17"/>
    </clipPath>
    <clipPath id="clippath-1">
      <rect class="cls-1" x="7.49" y="20.7" width="112.55" height="93.94"/>
    </clipPath>
  </defs>
  <g class="cls-7">
    <g class="cls-5">
      <g class="cls-3">
        <polygon class="cls-2" points="74.07 20.7 7.49 20.7 36.44 114.64 103.01 114.64 74.07 20.7"/>
        <polygon class="cls-2" points="61.27 46.94 40.22 46.94 39 43 61.27 43 61.27 46.94"/>
        <polygon class="cls-2" points="41.86 52.26 64.43 52.26 64.43 56.21 43.07 56.21 41.86 52.26"/>
        <polygon class="cls-2" points="70.03 33.73 70.03 37.67 37.36 37.67 36.15 33.73 70.03 33.73"/>
        <path class="cls-6" d="M101.4,60.17c-7.92,7.92-16.29,13.78-23.17,16.65l-5.16-5.16-7.67-7.67c2.88-6.87,8.73-15.24,16.65-23.17,11.82-11.82,24.64-19.04,31.99-18.63,1.79.1,3.25.65,4.3,1.69,5.34,5.34-2.24,21.59-16.93,36.29"/>
        <path class="cls-6" d="M114.04,22.19s-38.77,25.43-40.97,49.47l-7.67-7.67c2.88-6.87,8.73-15.24,16.65-23.17,11.82-11.82,24.64-19.04,31.99-18.63"/>
        <path class="cls-4" d="M68.07,46.98c-.57,0-1.07-.41-1.17-.98-.11-.64.32-1.26.96-1.37,5.96-1.03,11.26-4.93,14.17-10.42l1.84-3.47c2.56-4.83,8.08-7.53,13.13-6.43,4.63,1.01,8.81,3.28,12.08,6.55l8.17,8.17c.46.46.46,1.21,0,1.67-.46.46-1.21.46-1.67,0l-8.17-8.17c-2.95-2.95-6.72-4.99-10.91-5.91-4.03-.88-8.46,1.32-10.53,5.23l-1.84,3.47c-3.25,6.14-9.18,10.49-15.86,11.65-.07.01-.14.02-.2.02"/>
        <path class="cls-4" d="M65.4,63.99l-2.04,5.28c-1.02,2.65-2.99,4.83-5.52,6.12l-4.44,2.27-.93,10.23,4.09-4.09c-.51-1.24-.26-2.72.74-3.72.65-.65,1.5-1,2.42-1s1.77.36,2.42,1c1.33,1.33,1.33,3.5,0,4.84-.67.67-1.54,1-2.42,1-.44,0-.89-.09-1.3-.26l-4.09,4.09,10.23-.93,2.27-4.44c1.29-2.53,3.47-4.5,6.12-5.52l5.28-2.04-12.84-12.84Z"/>
        <polygon class="cls-4" points="67.98 37.67 22.98 37.67 21.77 33.73 66.77 33.73 67.98 37.67"/>
        <polygon class="cls-4" points="59.26 46.94 25.84 46.94 24.63 43 58.05 43 59.26 46.94"/>
        <polygon class="cls-4" points="62.12 56.21 28.7 56.21 27.48 52.26 60.9 52.26 62.12 56.21"/>
        <polygon class="cls-4" points="45.93 65.48 31.55 65.48 30.34 61.54 44.71 61.54 45.93 65.48"/>
        <path class="cls-4" d="M49.15,90.73c-.58.27-1.12.58-1.64.92-.52.33-1.01.69-1.49,1.07-.1.08-.2.16-.29.24-.1-.08-.2-.16-.3-.23-.49-.36-1-.7-1.53-1.01-.53-.31-1.09-.6-1.67-.85-.59-.25-1.2-.48-1.88-.62.22.66.52,1.24.83,1.8.32.55.67,1.07,1.04,1.56.37.49.77.96,1.18,1.4.41.45.85.87,1.3,1.27l1.11.99,1.08-1.03c.44-.42.85-.86,1.25-1.32.39-.46.78-.94,1.13-1.44.35-.51.68-1.04.98-1.6.29-.57.57-1.15.76-1.83-.68.17-1.28.42-1.86.69"/>
      </g>
    </g>
  </g>
</svg>