<?xml version="1.0" encoding="UTF-8"?>
<svg id="Layer_1" data-name="Layer 1" xmlns="http://www.w3.org/2000/svg" viewBox="0 0 128 128">
  <g>
    <polygon points="63.52 89.47 39.04 64.99 45.36 58.67 63.52 76.82 81.67 58.67 87.99 64.99 63.52 89.47"/>
    <polygon points="63.52 72.23 39.04 47.75 45.36 41.42 63.52 59.57 81.67 41.42 87.99 47.75 63.52 72.23"/>
  </g>
  <path d="M63.52,120.73c-31.36,0-56.87-25.51-56.87-56.87S32.16,7,63.52,7s56.87,25.51,56.87,56.87-25.51,56.87-56.87,56.87ZM63.52,15.95c-26.42,0-47.92,21.5-47.92,47.92s21.5,47.92,47.92,47.92,47.92-21.5,47.92-47.92S89.94,15.95,63.52,15.95Z"/>
</svg>