<svg xmlns="http://www.w3.org/2000/svg" id="Layer_1" viewBox="0 0 482.02 475.45"><defs><style>.cls-1{fill:#611ca6}.cls-2{fill:#4a44f2}.cls-3{fill:#027353}</style></defs><path d="M243.73 85.55c-58.06 0-105.29-19.19-105.29-42.78S185.68 0 243.73 0c43.53 0 83.14 10.92 98.58 27.17 4.73 4.98 6.99 10.24 6.71 15.63-.56 10.95-12 21.84-31.36 29.88-20.01 8.31-46.27 12.88-73.92 12.88Zm0-84.97c-57.74 0-104.71 18.93-104.71 42.19s46.97 42.19 104.71 42.19c27.58 0 53.76-4.56 73.7-12.84 19.15-7.95 30.45-18.66 31.01-29.37l.29.02-.29-.02c.27-5.22-1.94-10.33-6.56-15.19C326.55 11.43 287.11.58 243.73.58ZM243.59 475.45c-28.12 0-54.51-4.39-74.32-12.37-19.94-8.03-30.92-18.79-30.92-30.3 0-23.64 47.28-42.87 105.39-42.87s105.39 19.23 105.39 42.87c0 11.5-11.03 22.26-31.07 30.3-19.88 7.98-46.33 12.37-74.46 12.37Zm.14-84.77c-57.68 0-104.61 18.88-104.61 42.1s46.86 41.89 104.46 41.89 104.75-18.79 104.75-41.89-46.93-42.1-104.61-42.1Z"/><path d="M243.73 150.12c-50.46 0-97.63-5.41-132.81-15.23-35.31-9.86-54.76-23.12-54.76-37.36 0-17.66 29.73-28.47 54.67-34.42 33.52-8.01 79.48-12.67 132.9-13.48 86.31-1.32 158.9 12.17 180.62 33.55 4.5 4.43 6.78 9.14 6.78 14.01 0 14.26-19.41 27.59-54.67 37.53-35.21 9.93-82.35 15.4-132.72 15.4Zm11.57-100c-3.83 0-7.67.03-11.56.09-53.38.81-99.29 5.47-132.77 13.47-35.47 8.47-54.22 20.18-54.22 33.86s19.3 27.02 54.33 36.8c35.14 9.81 82.25 15.21 132.66 15.21s97.4-5.46 132.56-15.38c34.98-9.87 54.24-22.99 54.24-36.97 0-4.7-2.22-9.28-6.6-13.59-20.63-20.32-87.61-33.47-168.64-33.47ZM244.14 475.44c-16.21 0-28.91-5.08-28.91-11.56s12.7-11.56 28.91-11.56 28.91 5.08 28.91 11.56-12.7 11.56-28.91 11.56Zm0-22.35c-15.51 0-28.14 4.84-28.14 10.78s12.62 10.78 28.14 10.78 28.14-4.84 28.14-10.78-12.62-10.78-28.14-10.78Z"/><path d="M243.61 475.35c-63.64 0-123.45-24.7-168.4-69.54C30.26 360.96 5.5 301.29 5.5 237.78S30.29 114.55 75.29 69.64C120.29 24.73 180.12 0 243.76 0s123.47 24.73 168.47 69.64 69.78 104.62 69.78 168.13-24.81 123.17-69.86 168.03c-45.03 44.84-104.88 69.54-168.55 69.54ZM243.76.58C180.28.58 120.59 25.25 75.7 70.05 30.81 114.86 6.09 174.42 6.09 237.78s24.7 122.88 69.54 167.62c44.84 44.73 104.5 69.37 167.99 69.37s123.22-24.64 168.13-69.37c44.94-44.76 69.69-104.28 69.69-167.62s-24.72-122.92-69.61-167.72S307.24.58 243.76.58Z"/><path d="m272.89 464.05-.46-.35c17.54-23.06 25.71-94.85 25.71-225.92 0-96.78-3.05-199.23-25.7-225.31l.44-.38c22.77 26.23 25.84 128.81 25.84 225.69 0 131.21-8.21 203.11-25.83 226.28ZM189.38 238.28c-.19.03-.39.06-.58.11v-.61c0-62.63 1.78-110.44 5.43-146.14 4.31-42.1 11.24-68.12 21.16-79.55l.44.38c-9.84 11.34-16.72 37.25-21.02 79.23-3.65 35.68-5.43 83.46-5.43 146.08v.51ZM215.84 463.7l-.46.36c-17.16-21.83-25.86-90.78-26.54-210.58.19.05.39.08.58.11.68 119.59 9.35 188.39 26.42 210.11Z"/><path d="M244.14 24.21c-11.73 0-22.51-2.98-26.81-7.42-1.38-1.43-2.06-2.95-2.01-4.52.13-3.97 7.43-7.16 11.78-8.71 5.93-2.11 13.09-3.59 17.04-3.56 15.89.21 28.81 5.72 28.81 12.28s-12.93 11.93-28.82 11.93ZM243.95.58c-7.53 0-27.85 5.69-28.04 11.7-.05 1.4.58 2.78 1.85 4.09 4.2 4.33 14.8 7.25 26.39 7.25 15.57 0 28.23-5.09 28.23-11.35S259.71.78 244.14.58h-.19Z"/><circle cx="303.97" cy="18.84" r="5.85"/><circle cx="282.8" cy="441.54" r="8.86" class="cls-3"/><circle cx="5.79" cy="242.55" r="5.79" class="cls-1"/><path d="M413.71 246.79v-.03c-26.67 8.89-60.35 15.68-98.25 19.51-.12.22-.26.44-.4.65 35.09-3.5 67.24-9.61 94.02-18.03 1.59-.5 3.15-1.01 4.69-1.52-.04-.19-.07-.39-.07-.58ZM409.08 144.8c-44.03-13.84-102.56-21.46-164.81-21.46-129.21 0-234.32 32.97-234.32 73.5s105.12 73.5 234.32 73.5c18.43 0 36.53-.67 54.03-1.97a8.89 8.89 0 0 1-.51-.56 727.882 727.882 0 0 1-53.52 1.95c-128.88 0-233.74-32.71-233.74-72.92s104.85-72.92 233.74-72.92 232.67 32.71 232.67 72.92c0 16.21-16.97 31.2-45.63 43.32.43.03.85.07 1.27.12 29.18-12.51 44.95-27.58 44.95-43.44 0-19.69-24.3-38.18-68.44-52.05Z"/><path d="M387.53 322.04c-.5 1.99-1.02 3.98-1.56 5.96-7.71 28.27-18.73 53.77-32.74 75.78-29.13 45.77-67.67 70.98-108.51 70.98-20.73 0-40.96-6.45-60.12-19.18-18.41-12.23-35.01-29.65-49.35-51.8-14.28-22.06-25.52-47.55-33.4-75.78-8.15-29.18-12.28-59.82-12.28-91.07s4.13-61.81 12.27-90.84c7.87-28.07 19.11-53.39 33.39-75.27 14.32-21.94 30.92-39.2 49.34-51.29C203.71 6.96 223.93.58 244.68.58c40.9 0 79.44 24.94 108.53 70.23 14.02 21.84 25.04 47.16 32.75 75.27 7.95 28.99 11.99 59.55 11.99 90.84 0 24.47-2.47 48.54-7.35 71.79.2.01.39.02.59.04 4.87-23.27 7.34-47.35 7.34-71.83 0-31.34-4.04-61.96-12.01-91-7.73-28.17-18.77-53.54-32.83-75.43C324.5 25.04 285.79 0 244.68 0c-20.86 0-41.2 6.41-60.43 19.04-18.48 12.14-35.14 29.45-49.5 51.46-14.31 21.92-25.57 47.3-33.46 75.43-8.16 29.09-12.29 59.7-12.29 91s4.14 62 12.3 91.23c7.9 28.29 19.16 53.84 33.47 75.94 14.38 22.22 31.04 39.7 49.52 51.97 19.26 12.79 39.59 19.28 60.44 19.28 41.05 0 79.76-25.3 109-71.25 14.04-22.07 25.08-47.62 32.81-75.94.55-2.02 1.08-4.06 1.6-6.1-.2 0-.4 0-.6-.01Z"/><path d="M377.29 338.34c-20.56-5.75-45.02-10-71.7-12.58-.01.2-.03.4-.05.6 73.66 7.14 126.68 26.67 126.68 49.58 0 13.8-19.04 25.63-55.06 34.21-34.18 8.14-81.55 12.63-133.41 12.63s-99.23-4.49-133.41-12.63c-36.02-8.58-55.06-20.42-55.06-34.21 0-28.94 84.55-52.48 188.47-52.48 12.48 0 24.68.34 36.49.99v-.06c0-.18.02-.36.02-.54-11.9-.65-24.12-.98-36.51-.98-50.45 0-97.88 5.49-133.55 15.47-35.79 10.01-55.5 23.36-55.5 37.6s19.2 26.13 55.51 34.78c34.22 8.15 81.65 12.65 133.54 12.65s99.32-4.49 133.54-12.65c36.32-8.65 55.51-20.68 55.51-34.78s-19.71-27.59-55.5-37.6ZM226.02 235.25c5.97 0 11.99.06 18.03.2 36.82.8 71.66 3.54 102.57 7.72v-.55c-30.92-4.2-65.75-6.95-102.56-7.75-42.98-.93-84.41 1.52-120.07 6.59.22.16.45.31.66.48 30.46-4.29 65.12-6.68 101.36-6.68Z"/><path d="M354.51 243.73v.55c71.23 10.44 119.7 28.68 119.84 48.39.03 4.66-2.23 9.31-6.72 13.82-12.2 12.25-40.84 23.33-80.63 31.21-41.21 8.15-90.64 12.37-142.94 12.2-61.34-.2-119.37-6.64-163.39-18.13-42.93-11.2-67.55-26.27-67.55-41.36 0-4.7 2.36-9.39 7.01-13.94 13.3-13.02 43.52-23.84 83.31-31.13.14-.22.28-.44.43-.65-40.18 7.32-70.73 18.22-84.15 31.36-4.76 4.66-7.18 9.49-7.18 14.35 0 15.6 24.15 30.49 67.99 41.92 44.07 11.5 102.15 17.94 163.54 18.14h3.1c51.2 0 99.53-4.22 139.96-12.22 39.9-7.9 68.64-19.04 80.93-31.37 4.61-4.63 6.93-9.42 6.89-14.23-.15-19.95-48.86-38.41-120.42-48.94Z"/><path d="M72.36 245.97v7.15h10.13v3.46c-.22.29-.48.57-.71.84-.35.37-.68.7-1.03 1.03-1.3 1.28-2.64 2.31-4.05 3.1-2.33 1.32-4.78 1.98-7.38 1.98-2.18 0-4.16-.44-5.94-1.28-1.81-.86-3.37-2.05-4.71-3.59-.46-.51-.88-1.06-1.23-1.63-.22-.29-.4-.59-.57-.9-.53-.88-.95-1.81-1.32-2.82-.73-2.03-1.08-4.25-1.08-6.65 0-1.1.07-2.16.22-3.19.04-.31.11-.62.18-.92.13-.79.33-1.56.59-2.33.66-2.03 1.63-3.81 2.88-5.37 1.28-1.56 2.79-2.8 4.58-3.68 1.76-.9 3.72-1.37 5.83-1.37 2.71 0 5.2.68 7.51 2 1.5.86 2.77 1.96 3.83 3.3.4.53.77 1.08 1.1 1.67.13.24.26.48.4.75l7.29-5.37a18.92 18.92 0 0 0-3.06-4.4c-1.23-1.32-2.66-2.47-4.29-3.46-.09-.04-.18-.11-.26-.15-.26-.15-.53-.31-.81-.44-3.19-1.7-7-2.53-11.4-2.53-3.43 0-6.65.66-9.62 1.96a23.517 23.517 0 0 0-6.98 4.62c-.26.26-.53.53-.79.81-.49.51-.92 1.03-1.34 1.58a26.487 26.487 0 0 0-3.81 6.49c-.31.75-.57 1.5-.79 2.27-.11.31-.2.62-.26.9-.55 2.11-.84 4.29-.84 6.56 0 3.68.62 7.07 1.85 10.17.33.81.7 1.63 1.1 2.4.15.31.31.59.46.9.68 1.19 1.45 2.31 2.29 3.37.4.51.84 1.01 1.28 1.5 2.2 2.38 4.73 4.2 7.62 5.5 1.32.59 2.68 1.06 4.1 1.37 1.67.4 3.39.57 5.17.57 1.63 0 3.21-.2 4.71-.57 2.99-.75 5.75-2.22 8.26-4.45.35-.31.7-.64 1.04-.97l.02-.02v5.66h8.08v-25.84h-18.2ZM131.88 243.39c-.2-.35-.42-.66-.66-.99-.53-.79-1.17-1.56-1.85-2.27-1.69-1.76-3.74-3.13-6.12-4.14-2.4-.99-5.13-1.5-8.19-1.5s-5.66.51-8.08 1.5c-2.4 1.01-4.45 2.38-6.12 4.14a17.951 17.951 0 0 0-3.83 6.05c-.15.37-.29.77-.4 1.17-.11.37-.22.75-.31 1.12-.4 1.61-.6 3.3-.6 5.06 0 .31 0 .62.05.9 0 .35.02.68.04 1.01.15 1.83.57 3.57 1.21 5.26.88 2.27 2.16 4.29 3.87 6.05 1.69 1.78 3.74 3.19 6.12 4.2.53.24 1.08.44 1.65.62 1.96.62 4.11.92 6.45.92s4.49-.31 6.47-.92c.57-.18 1.12-.4 1.65-.62 2.38-1.01 4.43-2.42 6.12-4.2 1.26-1.3 2.29-2.75 3.13-4.36.15-.31.31-.64.44-.97.13-.24.24-.48.33-.73.88-2.27 1.34-4.65 1.34-7.18s-.46-5.06-1.34-7.35c-.4-.99-.86-1.92-1.39-2.8Zm-8.36 15.74c-.13.24-.26.48-.44.7-.15.33-.38.64-.64.95-.66.9-1.48 1.65-2.42 2.25-1.45.95-3.08 1.41-4.89 1.41s-3.44-.46-4.91-1.39c-1.5-.92-2.66-2.22-3.52-3.87-.24-.48-.44-.97-.62-1.5-.11-.35-.22-.7-.31-1.08-.22-.97-.33-1.98-.33-3.06 0-2.14.42-4.01 1.26-5.66.22-.44.46-.84.73-1.21.31-.44.64-.84.99-1.21.53-.57 1.12-1.06 1.76-1.47 1.45-.95 3.08-1.43 4.89-1.43s3.3.42 4.69 1.28c.09.04.18.09.26.15.35.22.68.48 1.01.75 1.01.84 1.83 1.89 2.49 3.15.88 1.65 1.32 3.5 1.32 5.59s-.44 4.01-1.32 5.66ZM163.16 239.25l-.37 1.12-7.57 22.88-7.27-21.58-.35-1.05-1.87-5.55h-9.78l2.43 6.52.39 1.03 7.71 20.74.41 1.12 2.65 7.11.08.22h10.26l.09-.22 1.98-5.33.38-1.03 9.51-25.52.41-1.12 1.3-3.52h-9l-1.39 4.18zM206.11 237.91c-.37-.29-.77-.55-1.19-.79-.15-.09-.29-.18-.44-.24-2.79-1.58-6.08-2.38-9.91-2.38-1.34 0-2.64.09-3.85.31-.37.04-.75.11-1.1.2-2 .42-3.83 1.12-5.48 2.11-.42.24-.81.51-1.19.79-.53.35-1.03.75-1.5 1.19a17.658 17.658 0 0 0-4.05 5.02c-1.58 2.93-2.38 6.12-2.38 9.58 0 2.55.46 4.95 1.37 7.2.88 2.24 2.18 4.25 3.9 5.99.02.02.05.04.07.04.4.44.81.81 1.26 1.19 1.41 1.19 3.02 2.14 4.82 2.91.53.22 1.06.4 1.61.57.57.18 1.17.33 1.78.46.37.07.73.13 1.12.2 1.15.18 2.33.26 3.57.26 2.4 0 4.58-.31 6.56-.92.35-.09.68-.2 1.01-.31 1.21-.44 2.31-.97 3.34-1.61.53-.31 1.04-.64 1.52-1.01.35-.26.68-.53 1.01-.81 1.65-1.48 2.91-3.15 3.76-5.04l-8.08-2.25c-.62 1.54-1.76 2.8-3.44 3.7a11.07 11.07 0 0 1-5.42 1.39 9.72 9.72 0 0 1-3.94-.81c-.22-.09-.42-.18-.64-.29-.15-.09-.31-.18-.46-.29a8.815 8.815 0 0 1-3.06-2.86c-.92-1.37-1.45-3.02-1.61-4.95h28.62c.04-.37.09-.84.13-1.37a19 19 0 0 0 .07-1.72c0-3.37-.77-6.47-2.33-9.33-1.32-2.44-3.15-4.49-5.46-6.12ZM184.8 250.5c.2-1.85.73-3.46 1.61-4.82.81-1.3 1.89-2.33 3.21-3.06.04-.04.11-.07.18-.11.29-.15.59-.31.92-.44 1.15-.48 2.4-.7 3.72-.7 1.74 0 3.32.37 4.73 1.14 1.43.75 2.58 1.8 3.44 3.17.88 1.37 1.41 2.97 1.61 4.82H184.8ZM241.11 234.25c-.29.02-.66 0-1.14-.04-2.03.11-3.94.77-5.79 1.94l-.68.46c-.29.22-.57.44-.86.66-1.67 1.41-3.08 3.19-4.2 5.37v-7.57h-8.72v36.74h9.42v-22.52c1.03-2.07 2.69-3.65 4.95-4.71 2.27-1.06 4.87-1.61 7.79-1.65v-8.58c-.24-.09-.48-.13-.77-.09ZM279.52 239.05c-.29-.51-.59-.97-1.01-1.39-.33-.42-.73-.81-1.19-1.14-.37-.31-.77-.57-1.21-.81-1.47-.81-3.39-1.21-5.7-1.21-2.16 0-4.2.31-6.08.9-.7.22-1.37.48-2 .79-.73.31-1.41.66-2.05 1.08-.35.2-.68.42-.99.66-1.45 1.06-2.66 2.4-3.61 3.98v-6.85h-8.56v36.74h9.42v-21.42c.57-1.48 1.34-2.77 2.38-3.92 1.01-1.12 2.16-2 3.45-2.66 1.3-.64 2.6-.97 3.87-.97 1.87 0 3.33.68 4.34 2.03 1.01 1.37 1.54 3.5 1.54 6.43v20.52h9.49v-22.96c0-1.74-.15-3.46-.46-5.15s-.86-3.26-1.63-4.65ZM321.68 261.22v-11.65c0-4.12-1.03-7.42-3.15-9.88-.33-.42-.7-.81-1.12-1.17-.04-.07-.11-.11-.15-.15-2.95-2.6-7.07-3.87-12.35-3.87-.15 0-.29 0-.44.02-.37-.02-.73 0-1.1.02-2.29.11-4.47.48-6.56 1.12-1.23.37-2.47.84-3.68 1.43-.66.31-1.3.66-1.96 1.03h-.02c-.62.37-1.21.75-1.83 1.17l2.97 6.16c2.02-1.32 3.96-2.33 5.81-3.04 1.67-.64 3.41-.99 5.26-1.03.2-.02.42-.02.62-.02h.48c2.49.09 4.4.68 5.68 1.87 1.37 1.25 2.05 3.02 2.05 5.28v2.05c-1.17-.53-2.58-.9-4.18-1.14-1.21-.15-2.38-.29-3.57-.33-.35-.02-.73-.02-1.1-.02h-.07c-3.17 0-5.94.51-8.32 1.52-2.38.99-4.25 2.38-5.59 4.16-1.34 1.76-2.02 3.85-2.02 6.23 0 2.14.55 4.09 1.67 5.83.37.62.82 1.17 1.34 1.7.31.37.68.73 1.1 1.03a11.4 11.4 0 0 0 2.16 1.43c.44.24.9.44 1.37.62 1.61.62 3.34.92 5.26.92.97 0 1.92-.09 2.88-.26.38-.07.75-.13 1.1-.24.51-.11.99-.26 1.5-.42.62-.22 1.25-.48 1.87-.77 1.47-.7 2.82-1.56 4.01-2.64.44-.35.84-.75 1.23-1.17.29-.33.57-.66.86-1.01l.09.92.11.99s0 .07.02.09c.2 1.19.77 2.18 1.72 2.99.29.24.62.44.99.59.88.44 1.98.64 3.3.64.46.04 1.03.02 1.74-.07.68-.09 1.45-.22 2.29-.35v-7.73c-.79-.09-1.39-.33-1.74-.77-.35-.42-.53-1.1-.53-2.09Zm-9.49-1.58c0 .42-.15.92-.48 1.52s-.77 1.12-1.28 1.58c-.86.84-1.96 1.52-3.32 2.07-.92.37-1.85.62-2.77.75-.37.04-.73.07-1.1.07-.11.02-.2.02-.31.02-1.43 0-2.62-.24-3.59-.75-.97-.51-1.69-1.19-2.22-2.05-.53-.86-.77-1.74-.77-2.66 0-1.7.79-3.06 2.35-4.09.42-.26.84-.51 1.32-.7.97-.42 2.07-.68 3.3-.79.35-.04.73-.07 1.1-.07h.33c.6 0 1.21.04 1.85.09.62.07 1.26.18 1.92.29 1.32.26 2.55.62 3.68 1.08v3.65ZM364.56 243.7a3.1 3.1 0 0 0-.11-.51c-.31-1.5-.84-2.88-1.52-4.14-.77-1.41-1.92-2.51-3.41-3.35-1.47-.81-3.37-1.21-5.68-1.21-2.18 0-4.2.31-6.1.9-1.89.62-3.57 1.45-5.02 2.53-.99.7-1.87 1.54-2.6 2.51-.26.31-.51.64-.71.99-.13.15-.22.31-.33.48v-6.85h-8.56v36.74h9.42v-21.42c.57-1.48 1.37-2.77 2.38-3.92 1.01-1.12 2.16-2 3.46-2.66 1.3-.64 2.6-.97 3.87-.97 1.89 0 3.32.68 4.36 2.03 1.01 1.37 1.52 3.5 1.52 6.43v20.52h9.49v-22.96c0-1.54-.13-3.08-.37-4.58-.02-.2-.04-.37-.09-.57ZM396.42 262.28c-.81.68-1.72 1.23-2.71 1.61-1.01.37-2.09.55-3.26.55-1.81 0-3.44-.46-4.89-1.39-1.47-.92-2.64-2.22-3.52-3.87-.05-.11-.11-.22-.15-.33-.15-.31-.29-.62-.42-.95-.49-1.34-.73-2.82-.73-4.42 0-2.22.44-4.14 1.3-5.77.15-.31.33-.59.53-.86.2-.33.44-.64.7-.95.64-.79 1.41-1.45 2.29-1.98 1.45-.9 3.06-1.36 4.8-1.36s3.15.37 4.47 1.1c1.32.75 2.38 1.78 3.19 3.15l9.2-2.82c-1.36-2.84-3.5-5.13-6.38-6.87-2.86-1.76-6.32-2.62-10.33-2.62s-7.48.86-10.41 2.58c-2.93 1.74-5.17 4.05-6.74 6.93-.06.13-.13.24-.18.37-.18.33-.33.66-.48.99-1.1 2.51-1.67 5.22-1.67 8.1 0 2.11.33 4.18.99 6.14.09.33.2.66.33.99 0 .02 0 .07.02.09.9 2.27 2.2 4.31 3.9 6.12 1.69 1.8 3.74 3.19 6.12 4.2.53.22 1.06.4 1.61.57 1.98.62 4.18.92 6.58.92s4.47-.31 6.41-.92c.35-.09.66-.2.99-.31 2.2-.84 4.12-1.98 5.74-3.43 1.63-1.48 2.86-3.13 3.72-4.95l-9.22-2.84c-.37.79-.97 1.54-1.8 2.22ZM448.52 247.18c-.35-1.08-.82-2.14-1.37-3.15-.6-1.08-1.28-2.07-2.05-2.99-.22-.24-.44-.51-.66-.73-.4-.44-.81-.84-1.25-1.21-.82-.73-1.72-1.39-2.69-1.98-2.88-1.74-6.34-2.62-10.34-2.62s-7.53.88-10.44 2.62c-2.91 1.76-5.15 4.09-6.74 7a18.84 18.84 0 0 0-1.43 3.37c-.37 1.14-.64 2.31-.77 3.54-.02.07-.02.15-.02.24-.04.26-.07.53-.09.79-.02.07-.02.15-.02.24-.02.46-.05.92-.05 1.39 0 1.45.15 2.86.46 4.2.2 1.03.51 2.03.88 2.99.9 2.24 2.2 4.25 3.9 5.99 1.72 1.76 3.76 3.13 6.16 4.14.53.22 1.06.4 1.61.57 1.98.62 4.14.92 6.47.92s4.56-.31 6.56-.92c.35-.09.68-.2 1.01-.31 2.27-.84 4.23-1.98 5.88-3.43 1.65-1.48 2.91-3.15 3.76-5.04l-8.08-2.25c-.62 1.54-1.76 2.8-3.43 3.7a11.07 11.07 0 0 1-5.42 1.39c-1.61 0-3.13-.37-4.58-1.1a9.586 9.586 0 0 1-3.55-3.15c-.9-1.37-1.43-3.02-1.58-4.95h28.62c.05-.37.09-.84.13-1.37.04-.55.06-1.12.06-1.72 0-2.18-.33-4.23-.97-6.19Zm-28.13 3.32c.04-.33.09-.66.15-.97.04-.37.13-.73.24-1.06.26-1.03.66-1.96 1.21-2.8a8.705 8.705 0 0 1 3.13-3.02c.09-.04.17-.11.26-.15 1.39-.77 2.93-1.14 4.65-1.14s3.32.37 4.73 1.14c.5.26.97.57 1.41.92.29.22.57.46.81.73.46.44.86.97 1.21 1.52.88 1.37 1.41 2.97 1.61 4.82h-19.42ZM128.15 298.22a13.18 13.18 0 0 0-4.14-5.17c-1.83-1.34-3.99-2-6.47-2H97.2l-4.69 22.06-.97 4.53-.48 2.29-2.55 12.06-.2.97-.24 1.1-1.54 7.26h9.69l.09-.4.24-1.17.35-1.63.44-2.05.02-.13.24-1.12 1.14-5.33 1.08-5.04h10.92c.95 0 1.87-.07 2.75-.22 1.58-.26 3.08-.77 4.51-1.47 2.22-1.14 4.23-2.64 5.97-4.53 1.45-1.56 2.64-3.28 3.57-5.13.2-.37.37-.77.55-1.17.99-2.31 1.47-4.67 1.47-7.02s-.46-4.58-1.41-6.69Zm-13.4 16.88c-.92.53-1.89.79-2.88.79h-10.26l.59-2.8 2.86-13.49h9.93c.84 0 1.63.24 2.33.7.71.48 1.26 1.17 1.67 2.09.4.92.6 2.03.6 3.3 0 1.41-.2 2.75-.6 3.98-.42 1.25-.99 2.36-1.74 3.26-.04.04-.09.11-.13.15-.73.86-1.52 1.52-2.38 2ZM156.72 304.21h-1.1c-2.11.04-4.31.79-6.58 2.25-2.27 1.45-4.29 3.43-6.1 5.97l1.72-7.86h-8.72l-1.85 8.54-4.01 18.58-.24 1.17-1.52 7.09-.24 1.08-.06.31h9.55l.04-.15 2.13-10.08.24-1.14 2.31-10.94c1.39-2.03 3.26-3.57 5.64-4.6a20.042 20.042 0 0 1 7.61-1.63l1.76-8.41c-.13-.11-.33-.15-.6-.15ZM162.71 304.56l-1.85 8.54-3.06 14.2-.24 1.14-2.78 12.88h9.56l3.01-14.07.24-1.14 2.77-13.01 1.83-8.54h-9.49Zm3.04-14.57-1.92 9.33h9.49l1.98-9.33h-9.55ZM210.79 308.17a6.371 6.371 0 0 0-2.55-3.06c-1.19-.75-2.86-1.12-5.02-1.12-1.98 0-3.94.31-5.88.92-1.94.59-3.72 1.45-5.35 2.51-.09.07-.2.13-.29.2-.37.26-.73.53-1.08.81-1.08.86-2.05 1.87-2.93 2.99l1.5-6.87h-8.56l-1.85 8.54-2.62 12.09-.24 1.17-3.24 14.97h9.58l3.41-15.87.24-1.12.95-4.45a14.37 14.37 0 0 1 2.93-3.9c.35-.33.71-.64 1.08-.9.35-.31.7-.57 1.08-.81.53-.35 1.08-.68 1.63-.95.18-.09.35-.15.51-.22 1.14-.51 2.2-.75 3.19-.75s1.8.24 2.46.75c.18.11.33.24.46.4.73.77 1.1 1.98 1.1 3.61 0 .55-.04 1.12-.11 1.74-.06.59-.2 1.25-.4 1.96l-.53 2.49-.24 1.12-3.61 16.91h9.49l3.72-17.43.22-1.12.95-4.42c.24-.92.42-1.89.57-2.91.11-.77.18-1.56.18-2.33.02-.22.02-.42.02-.64 0-1.58-.24-3.02-.77-4.29ZM237.91 331.79c-.86.68-1.78 1.21-2.8 1.58-1.01.4-2.07.57-3.15.57-1.28 0-2.44-.35-3.52-1.08-1.06-.7-1.87-1.72-2.44-2.97-.55-1.28-.84-2.75-.84-4.42 0-.75.04-1.47.18-2.18.02-.37.09-.75.2-1.12.13-.68.33-1.34.57-1.98.64-1.61 1.5-3.04 2.6-4.27 1.06-1.19 2.31-2.16 3.7-2.82.02 0 .02-.02.04-.02 1.43-.68 2.86-1.01 4.31-1.01s2.73.35 3.76 1.03c.02 0 .02.02.05.02 1.01.73 1.74 1.78 2.22 3.19l9.77-2.84c-.04-.13-.06-.26-.11-.37-.79-2.64-2.31-4.82-4.53-6.49-2.33-1.74-5.48-2.62-9.44-2.62-3.41 0-6.52.64-9.36 1.87s-5.28 2.91-7.33 5.04c-.68.7-1.3 1.43-1.87 2.2a22.187 22.187 0 0 0-2.91 5.04c-.6 1.43-1.03 2.88-1.32 4.36-.06.35-.13.73-.17 1.1-.13.97-.2 1.96-.2 2.95 0 2.8.57 5.37 1.74 7.7 1.15 2.33 2.84 4.2 5.09 5.64 2.24 1.41 5.02 2.14 8.32 2.14 2.6 0 5.04-.42 7.33-1.23 2.29-.84 4.36-1.98 6.23-3.46 1.87-1.45 3.39-3.1 4.58-4.95l-8.72-2.82c-.48.79-1.14 1.54-1.98 2.22ZM260.21 304.56l-1.85 8.54-1.89 8.85-.24 1.1-3.94 18.27h9.55l3.88-18.09.22-1.1 1.94-9.03 1.83-8.54h-9.49Zm3.04-14.57-1.89 9.33h9.49l1.98-9.33h-9.57ZM310.73 313.1c-.2-.57-.42-1.12-.66-1.67-1.06-2.29-2.53-4.09-4.47-5.44-.66-.44-1.34-.81-2.09-1.12-.35-.13-.73-.26-1.1-.37-1.15-.33-2.4-.51-3.74-.51-2.64 0-5.13.64-7.44 1.87-2.31 1.23-4.36 2.93-6.16 5.06l1.34-6.36h-8.34l-1.83 8.54-1.98 9.29-.22 1.08-5.11 23.97-.24 1.12-.53 2.42-1.14 5.42h9.49l1.17-5.42.55-2.66.24-1.12 2.64-12.33c.66 2.16 1.89 3.87 3.68 5.19 1.8 1.3 4.05 1.96 6.74 1.96s5.17-.62 7.62-1.85c.6-.31 1.17-.64 1.72-1.01.37-.22.75-.48 1.12-.77 1.3-.95 2.49-2.05 3.59-3.35 1.87-2.16 3.35-4.62 4.42-7.37.26-.64.49-1.28.68-1.94.11-.35.2-.73.29-1.1.44-1.81.66-3.68.66-5.59 0-2.14-.29-4.12-.88-5.94Zm-10.06 12.37a14.79 14.79 0 0 1-2.58 4.31 13.713 13.713 0 0 1-3.68 3.02 8.887 8.887 0 0 1-4.4 1.14c-1.17 0-2.29-.31-3.33-.92a7.366 7.366 0 0 1-2.51-2.6c-.64-1.1-1.1-2.33-1.39-3.68l.64-2.88.24-1.08 1.03-4.65c.46-.92 1.08-1.74 1.85-2.44.75-.73 1.56-1.34 2.44-1.89.4-.26.81-.51 1.23-.7.46-.22.95-.42 1.41-.57.9-.31 1.78-.46 2.62-.46 1.45 0 2.71.35 3.79 1.03.07.02.11.07.15.09 1.1.73 1.96 1.76 2.55 3.04.57 1.3.88 2.77.88 4.38 0 1.08-.15 2.16-.44 3.24-.09.35-.2.73-.35 1.08-.05.18-.11.37-.18.55ZM328.25 333.88c-1.94 0-2.91-.97-2.91-2.91 0-.24.02-.48.04-.73.02-.22.07-.48.11-.77l.46-2.22.24-1.08 2.8-13.08 5-23.49h-9.49l-5 23.49-2.55 12.09-.24 1.1-1.41 6.65c-.11.42-.17.86-.22 1.32-.04.44-.07.9-.07 1.36 0 2.05.64 3.61 1.94 4.73 1.3 1.12 3.13 1.67 5.5 1.67 1.41 0 2.97-.18 4.67-.51 1.7-.33 3.24-.79 4.6-1.41l.29-7.22c-.62.33-1.28.57-1.96.75-.68.15-1.28.24-1.8.24ZM361.73 331.41c-.24.33-.57.66-.92.95-.6.53-1.28 1.01-2 1.41-1.67.92-3.46 1.39-5.35 1.39-1.69 0-3.08-.37-4.16-1.12a6.629 6.629 0 0 1-2.44-2.99c-.15-.35-.29-.7-.37-1.08-.13-.37-.22-.77-.26-1.17-.13-.66-.18-1.34-.18-2.07 0-.29.02-.55.05-.81.37.02.77.04 1.14.07 1.65.07 3.19.11 4.6.11 7.13 0 12.48-1.01 16-3.02 3.54-2 5.35-4.95 5.39-8.83 0-.4-.02-.77-.07-1.14-.15-1.72-.68-3.19-1.56-4.47-1.08-1.54-2.64-2.71-4.65-3.48-2-.77-4.34-1.17-6.98-1.17-3.3 0-6.36.59-9.2 1.81-2.82 1.19-5.31 2.82-7.44 4.89-.77.77-1.5 1.58-2.09 2.42a20.69 20.69 0 0 0-2.86 4.76c-1.17 2.71-1.76 5.59-1.76 8.63 0 .33 0 .64.02.97.02.37.04.75.09 1.12.22 2.18.79 4.16 1.72 5.94 1.23 2.33 2.99 4.18 5.26 5.5 2.25 1.34 4.95 2 8.06 2 .57 0 1.14-.02 1.69-.09.66-.02 1.32-.11 1.98-.22 1.19-.22 2.38-.53 3.54-.92 2.38-.84 4.53-1.98 6.52-3.46 1.39-1.01 2.6-2.14 3.59-3.37.26-.31.51-.62.73-.95.2-.22.35-.46.51-.7l-7.51-2.27c-.31.48-.66.95-1.08 1.36Zm-8.1-19.26c1.54-.86 3.21-1.3 5-1.3 1.14 0 2.11.15 2.95.46.81.31 1.47.73 1.94 1.32.11.15.22.31.31.46.26.48.37 1.08.33 1.78.04 1.06-.33 1.98-1.12 2.77-.81.77-2.09 1.36-3.87 1.78-1.76.42-4.18.64-7.24.64-1.39 0-2.75-.04-4.16-.15-.13 0-.26-.02-.42-.02.57-1.56 1.34-2.97 2.31-4.23.77-1.01 1.63-1.87 2.58-2.58.44-.35.92-.66 1.41-.95ZM403.38 324.66c-.68-.95-1.7-1.78-2.97-2.49-.29-.18-.57-.31-.88-.46-.05-.02-.07-.02-.11-.04-1.69-.79-3.83-1.56-6.36-2.29-2.22-.64-3.74-1.21-4.58-1.7-.75-.44-1.14-1.1-1.19-1.98-.04-.09-.04-.18-.04-.26 0-.92.22-1.7.68-2.33.05-.07.09-.13.13-.2.53-.66 1.3-1.17 2.27-1.52.97-.35 2.07-.53 3.28-.53 1.65 0 3.17.31 4.58.9.75.33 1.52.77 2.31 1.34.33.22.66.48.99.79.31.24.62.53.92.84.05.02.09.07.13.11l1.54-1.74 3.48-3.94c-.97-1.06-2.03-1.94-3.17-2.66-.33-.2-.66-.4-.99-.57a13.5 13.5 0 0 0-1.5-.68c-2.14-.84-4.54-1.25-7.22-1.25-3.13 0-5.94.62-8.48 1.83-2.53 1.21-4.53 2.82-6.05 4.82-.59.77-1.06 1.58-1.41 2.47-.57 1.39-.86 2.91-.86 4.53 0 1.52.4 2.8 1.17 3.81.51.64 1.17 1.21 1.98 1.72.46.31.99.59 1.56.86 1.58.73 3.61 1.48 6.05 2.27 2.22.62 3.85 1.21 4.89 1.78 1.04.59 1.56 1.48 1.56 2.62 0 .88-.26 1.65-.79 2.33-.51.68-1.23 1.21-2.18 1.58-.95.35-2.11.55-3.48.55-1.89 0-3.76-.42-5.66-1.25-.66-.29-1.32-.62-1.96-1.01-1.21-.68-2.4-1.54-3.57-2.55l-3.02 3.65-.77.95-1.03 1.28c.95 1.08 2.05 2 3.32 2.8.48.31 1.01.59 1.56.84.51.26 1.01.48 1.56.68.64.24 1.28.44 1.94.64 2.07.57 4.27.86 6.56.86 1.94 0 3.72-.18 5.37-.53.46-.11.88-.22 1.32-.35.55-.15 1.08-.33 1.58-.55.24-.09.48-.18.71-.29.26-.11.53-.24.77-.35 2.18-1.12 3.92-2.53 5.2-4.29.02-.04.06-.09.09-.13.29-.4.55-.84.75-1.25.35-.64.59-1.28.79-1.96.33-1.08.49-2.22.49-3.43 0-1.01-.15-1.94-.49-2.75-.2-.53-.46-1.03-.79-1.48ZM80.72 155.07v20.32H57.91v-20.32h-9.77v50.28h9.77v-21.46h22.81v21.46h9.71v-50.28h-9.71ZM133.62 177.56c-.22-.4-.46-.79-.7-1.19-1.5-2.31-3.5-4.2-5.97-5.72-2.86-1.76-6.32-2.64-10.33-2.64s-7.55.88-10.46 2.64a18.065 18.065 0 0 0-5.97 5.72c-.26.42-.51.84-.75 1.28-1.58 2.91-2.38 6.1-2.38 9.55 0 2.58.44 4.98 1.34 7.22.9 2.25 2.2 4.23 3.9 5.99 1.7 1.74 3.76 3.13 6.16 4.12.77.33 1.59.59 2.42.81 1.74.46 3.63.7 5.66.7s4.03-.24 5.83-.7c.6-.15 1.17-.33 1.74-.53 2.27-.84 4.23-1.98 5.88-3.46 1.65-1.45 2.91-3.13 3.74-5.02l-8.06-2.27c-.62 1.56-1.76 2.8-3.43 3.72-1.7.92-3.5 1.39-5.44 1.39a9.76 9.76 0 0 1-4.56-1.12 9.312 9.312 0 0 1-3.54-3.15c-.92-1.34-1.45-2.99-1.58-4.93h28.6c.04-.37.11-.84.15-1.39.05-.53.07-1.1.07-1.72 0-3.35-.77-6.47-2.33-9.31Zm-26.77 6.45c.18-1.83.73-3.43 1.58-4.8.77-1.19 1.69-2.14 2.86-2.84.18-.13.35-.24.55-.35 1.39-.75 2.93-1.14 4.62-1.14s3.34.4 4.75 1.14c.2.11.37.22.55.35 1.17.7 2.11 1.65 2.88 2.84.88 1.36 1.41 2.97 1.58 4.8h-19.39ZM174.08 196.85c-.35-.42-.53-1.12-.53-2.09v-11.67c0-2.55-.4-4.8-1.23-6.71-.7-1.76-1.78-3.26-3.19-4.49-2.95-2.58-7.07-3.87-12.35-3.87-2.84 0-5.55.4-8.12 1.17-2.58.79-5.06 2-7.46 3.65l1.72 3.54 1.25 2.62c1.67-1.08 3.28-1.96 4.82-2.62.33-.15.66-.29.99-.42 1.85-.7 3.79-1.08 5.88-1.08 2.42 0 4.31.51 5.68 1.5.18.13.33.26.48.4 1.37 1.25 2.05 3.02 2.05 5.28v2.05c-1.19-.53-2.58-.9-4.18-1.14-1.61-.24-3.19-.35-4.73-.35-3.17 0-5.94.51-8.32 1.5-2.4 1.01-4.25 2.4-5.59 4.18-1.37 1.76-2.03 3.83-2.03 6.21 0 2.16.55 4.09 1.67 5.86 1.1 1.74 2.64 3.13 4.6 4.16.66.33 1.34.62 2.05.84 1.41.46 2.93.7 4.56.7s3.21-.24 4.78-.7c.88-.26 1.74-.59 2.6-.99 2.4-1.14 4.42-2.75 6.1-4.82l.2 1.91c.2 1.23.77 2.25 1.74 3.08.42.35.95.64 1.54.81.77.29 1.69.42 2.75.42.46.04 1.03.02 1.72-.07.68-.11 1.45-.22 2.31-.35v-7.73c-.81-.09-1.39-.35-1.74-.77Zm-10.02-3.68c0 .42-.18.92-.48 1.52-.35.59-.77 1.12-1.28 1.59-.86.84-1.96 1.52-3.34 2.07-1.37.55-2.75.84-4.16.84s-2.62-.26-3.59-.77c-.97-.51-1.72-1.19-2.22-2.03-.53-.86-.79-1.74-.79-2.66 0-1.7.79-3.08 2.38-4.12 1.59-1.03 3.61-1.54 6.05-1.54 1.19 0 2.44.13 3.76.37 1.32.26 2.55.62 3.68 1.08v3.65ZM199.46 196.85c-.61.33-1.3.57-2.09.77-.77.2-1.59.29-2.44.29-.92 0-1.7-.31-2.27-.88-.55-.59-.84-1.78-.84-3.52v-39.87h-9.49v43.32c0 2.88.81 5.13 2.44 6.71.75.73 1.63 1.3 2.66 1.67.73.29 1.52.48 2.4.57.35.07.71.09 1.08.11.24.02.48.02.75.02 1.43 0 2.97-.18 4.65-.51.31-.07.62-.13.9-.2 1.3-.31 2.49-.7 3.52-1.21l-1.28-7.29ZM224.82 195.92c-.62.29-1.39.59-2.33.95-.95.35-1.89.53-2.84.53-1.03 0-1.89-.29-2.55-.86-.66-.59-1.01-1.52-1.06-2.77v-17.96h7.79v-7.22h-7.79v-12.04h-9.55v12.04h-4.82v7.22h4.82v21.2c0 2.14.44 3.9 1.3 5.22.88 1.34 2.05 2.31 3.5 2.91.22.09.42.18.64.22 1.3.48 2.73.7 4.25.7 1.32 0 2.64-.13 3.94-.4.44-.09.9-.2 1.32-.31.81-.2 1.56-.42 2.29-.68 1.1-.4 2.09-.79 2.93-1.17l-1.83-7.57ZM265.61 177.15c-.05-.26-.11-.51-.18-.77a15.16 15.16 0 0 0-1.56-3.87c-.84-1.41-2-2.49-3.54-3.28-1.54-.81-3.5-1.21-5.92-1.21-2.77 0-5.33.66-7.68 1.96-2.33 1.32-4.23 3.15-5.7 5.48v-21.82h-9.4v51.71h9.4v-21.44c.53-1.47 1.3-2.77 2.31-3.9 1.01-1.12 2.16-2.03 3.43-2.66 1.28-.64 2.49-.97 3.61-.97 1.94 0 3.46.7 4.58 2.09 1.1 1.41 1.65 3.52 1.65 6.36v20.52h9.49v-22.98c0-1.76-.15-3.5-.48-5.22ZM340.21 176.38c-.35-3.17-1.19-6.14-2.53-8.89-1.85-3.79-4.6-6.82-8.28-9.05-1.81-1.1-3.83-1.92-6.05-2.49-1.32-.33-2.71-.57-4.16-.7a36.19 36.19 0 0 0-3.52-.18H297.4v50.28h18.27c5.04 0 9.42-1.06 13.12-3.13 3.72-2.07 6.58-5 8.61-8.78 2.03-3.76 3.04-8.21 3.04-13.32 0-1.28-.07-2.53-.22-3.74Zm-11.33 12.23c-1.17 2.51-2.84 4.49-5.04 5.97-2.2 1.45-4.91 2.18-8.17 2.18h-8.5v-33.13h8.5c3.15 0 5.83.7 8.06 2.09 2.22 1.39 3.92 3.32 5.11 5.81.71 1.48 1.19 3.08 1.47 4.84.2 1.19.29 2.44.29 3.74 0 3.17-.57 6.01-1.72 8.5ZM376.73 196.85c-.35-.42-.53-1.12-.53-2.09v-11.67c0-2.55-.4-4.8-1.23-6.71-.71-1.76-1.78-3.26-3.19-4.49-2.95-2.58-7.07-3.87-12.35-3.87-2.84 0-5.55.4-8.12 1.17-2.58.79-5.06 2-7.46 3.65l1.72 3.54 1.26 2.62c1.67-1.08 3.28-1.96 4.82-2.62.33-.15.66-.29.99-.42 1.83-.7 3.79-1.08 5.88-1.08 2.42 0 4.31.51 5.68 1.5.18.13.33.26.49.4 1.36 1.25 2.05 3.02 2.05 5.28v2.05c-1.19-.53-2.58-.9-4.18-1.14-1.61-.24-3.19-.35-4.73-.35-3.17 0-5.94.51-8.32 1.5-2.4 1.01-4.25 2.4-5.59 4.18-1.37 1.76-2.03 3.83-2.03 6.21 0 2.16.55 4.09 1.67 5.86 1.1 1.74 2.64 3.13 4.6 4.16.66.33 1.34.62 2.05.84 1.41.46 2.93.7 4.56.7s3.21-.24 4.78-.7c.88-.26 1.74-.59 2.6-.99 2.4-1.14 4.42-2.75 6.1-4.82l.2 1.91c.2 1.23.77 2.25 1.74 3.08.42.35.95.64 1.54.81.77.29 1.7.42 2.75.42.46.04 1.03.02 1.72-.07.68-.11 1.45-.22 2.31-.35v-7.73c-.81-.09-1.39-.35-1.74-.77Zm-10.01-3.68c0 .42-.18.92-.51 1.52a6.6 6.6 0 0 1-1.25 1.59c-.86.84-1.96 1.52-3.35 2.07-1.37.55-2.75.84-4.16.84s-2.62-.26-3.59-.77c-.97-.51-1.72-1.19-2.22-2.03-.53-.86-.79-1.74-.79-2.66 0-1.7.79-3.08 2.38-4.12 1.58-1.03 3.61-1.54 6.05-1.54 1.19 0 2.44.13 3.76.37 1.32.26 2.55.62 3.68 1.08v3.65ZM405.09 195.92c-.59.29-1.39.59-2.33.95-.95.35-1.89.53-2.82.53-1.06 0-1.89-.29-2.55-.86-.66-.59-1.01-1.52-1.06-2.77v-17.96h7.4c-.53-2.42-1.08-4.82-1.69-7.22h-5.7v-12.04h-9.58v12.04h-4.8v7.22h4.8v21.2c0 2.14.44 3.9 1.32 5.22a7.476 7.476 0 0 0 3.5 2.91c.2.09.4.15.62.22 1.27.48 2.71.7 4.27.7 1.32 0 2.64-.13 3.94-.4.44-.09.9-.2 1.32-.31.79-.2 1.56-.42 2.29-.68 1.1-.4 2.07-.79 2.93-1.17l-1.85-7.57ZM444.23 196.85c-.35-.42-.55-1.12-.55-2.09v-11.67c0-2.55-.4-4.8-1.23-6.71-.7-1.76-1.78-3.26-3.19-4.49-2.95-2.58-7.07-3.87-12.35-3.87-2.84 0-5.52.4-8.1 1.17-2.58.79-5.06 2-7.49 3.65l1.72 3.54 1.28 2.62c1.67-1.1 3.28-1.98 4.82-2.62.33-.15.66-.29.97-.42 1.85-.7 3.81-1.08 5.88-1.08 2.44 0 4.34.51 5.68 1.5.18.13.33.26.48.4 1.37 1.25 2.05 3.02 2.05 5.28v2.05c-1.17-.53-2.55-.9-4.16-1.14a32.16 32.16 0 0 0-4.76-.35c-3.17 0-5.94.51-8.32 1.5-2.38 1.01-4.25 2.4-5.59 4.18-1.34 1.76-2.03 3.83-2.03 6.21 0 2.16.57 4.09 1.67 5.86 1.1 1.74 2.64 3.13 4.6 4.16.66.33 1.34.62 2.05.84 1.41.46 2.93.7 4.58.7s3.19-.24 4.76-.7c.88-.26 1.74-.59 2.6-.99 2.42-1.14 4.45-2.75 6.1-4.82l.22 1.91c.18 1.23.75 2.25 1.72 3.08.42.35.95.64 1.54.81.77.29 1.69.42 2.75.42.46.04 1.06.02 1.74-.07.68-.11 1.45-.22 2.29-.35v-7.73c-.79-.09-1.37-.35-1.72-.77Zm-10.04-3.68c0 .42-.15.92-.48 1.52-.33.59-.75 1.12-1.28 1.59-.86.84-1.96 1.52-3.32 2.07s-2.77.84-4.18.84-2.6-.26-3.56-.77c-.97-.51-1.72-1.19-2.25-2.03-.51-.86-.77-1.74-.77-2.66 0-1.7.79-3.08 2.38-4.12 1.58-1.03 3.59-1.54 6.05-1.54 1.17 0 2.42.13 3.74.37 1.32.26 2.55.62 3.68 1.08v3.65Z"/><circle cx="303.97" cy="18.84" r="5.85" class="cls-1"/><circle cx="431.12" cy="382.77" r="5.85" class="cls-1"/><circle cx="124.83" cy="385.78" r="8.86" class="cls-2"/><circle cx="118.4" cy="100.58" r="5.85" class="cls-3"/><circle cx="366.79" cy="94.12" r="8.86" class="cls-2"/><path d="M243.73 85.55c-58.06 0-105.29-19.19-105.29-42.78S185.68 0 243.73 0c43.53 0 83.14 10.92 98.58 27.17 4.73 4.98 6.99 10.24 6.71 15.63-.56 10.95-12 21.84-31.36 29.88-20.01 8.31-46.27 12.88-73.92 12.88Zm0-84.97c-57.74 0-104.71 18.93-104.71 42.19s46.97 42.19 104.71 42.19c27.58 0 53.76-4.56 73.7-12.84 19.15-7.95 30.45-18.66 31.01-29.37l.29.02-.29-.02c.27-5.22-1.94-10.33-6.56-15.19C326.55 11.43 287.11.58 243.73.58ZM243.59 475.45c-28.12 0-54.51-4.39-74.32-12.37-19.94-8.03-30.92-18.79-30.92-30.3 0-23.64 47.28-42.87 105.39-42.87s105.39 19.23 105.39 42.87c0 11.5-11.03 22.26-31.07 30.3-19.88 7.98-46.33 12.37-74.46 12.37Zm.14-84.77c-57.68 0-104.61 18.88-104.61 42.1s46.86 41.89 104.46 41.89 104.75-18.79 104.75-41.89-46.93-42.1-104.61-42.1Z"/><path d="M243.73 150.12c-50.46 0-97.63-5.41-132.81-15.23-35.31-9.86-54.76-23.12-54.76-37.36 0-17.66 29.73-28.47 54.67-34.42 33.52-8.01 79.48-12.67 132.9-13.48 86.31-1.32 158.9 12.17 180.62 33.55 4.5 4.43 6.78 9.14 6.78 14.01 0 14.26-19.41 27.59-54.67 37.53-35.21 9.93-82.35 15.4-132.72 15.4Zm11.57-100c-3.83 0-7.67.03-11.56.09-53.38.81-99.29 5.47-132.77 13.47-35.47 8.47-54.22 20.18-54.22 33.86s19.3 27.02 54.33 36.8c35.14 9.81 82.25 15.21 132.66 15.21s97.4-5.46 132.56-15.38c34.98-9.87 54.24-22.99 54.24-36.97 0-4.7-2.22-9.28-6.6-13.59-20.63-20.32-87.61-33.47-168.64-33.47ZM244.14 475.44c-16.21 0-28.91-5.08-28.91-11.56s12.7-11.56 28.91-11.56 28.91 5.08 28.91 11.56-12.7 11.56-28.91 11.56Zm0-22.35c-15.51 0-28.14 4.84-28.14 10.78s12.62 10.78 28.14 10.78 28.14-4.84 28.14-10.78-12.62-10.78-28.14-10.78Z"/><path d="M243.61 475.35c-63.64 0-123.45-24.7-168.4-69.54C30.26 360.96 5.5 301.29 5.5 237.78S30.29 114.55 75.29 69.64C120.29 24.73 180.12 0 243.76 0s123.47 24.73 168.47 69.64 69.78 104.62 69.78 168.13-24.81 123.17-69.86 168.03c-45.03 44.84-104.88 69.54-168.55 69.54ZM243.76.58C180.28.58 120.59 25.25 75.7 70.05 30.81 114.86 6.09 174.42 6.09 237.78s24.7 122.88 69.54 167.62c44.84 44.73 104.5 69.37 167.99 69.37s123.22-24.64 168.13-69.37c44.94-44.76 69.69-104.28 69.69-167.62s-24.72-122.92-69.61-167.72S307.24.58 243.76.58Z"/><path d="m272.89 464.05-.46-.35c17.54-23.06 25.71-94.85 25.71-225.92 0-96.78-3.05-199.23-25.7-225.31l.44-.38c22.77 26.23 25.84 128.81 25.84 225.69 0 131.21-8.21 203.11-25.83 226.28ZM189.38 238.28c-.19.03-.39.06-.58.11v-.61c0-62.63 1.78-110.44 5.43-146.14 4.31-42.1 11.24-68.12 21.16-79.55l.44.38c-9.84 11.34-16.72 37.25-21.02 79.23-3.65 35.68-5.43 83.46-5.43 146.08v.51ZM215.84 463.7l-.46.36c-17.16-21.83-25.86-90.78-26.54-210.58.19.05.39.08.58.11.68 119.59 9.35 188.39 26.42 210.11Z"/><path d="M244.14 24.21c-11.73 0-22.51-2.98-26.81-7.42-1.38-1.43-2.06-2.95-2.01-4.52.13-3.97 7.43-7.16 11.78-8.71 5.93-2.11 13.09-3.59 17.04-3.56 15.89.21 28.81 5.72 28.81 12.28s-12.93 11.93-28.82 11.93ZM243.95.58c-7.53 0-27.85 5.69-28.04 11.7-.05 1.4.58 2.78 1.85 4.09 4.2 4.33 14.8 7.25 26.39 7.25 15.57 0 28.23-5.09 28.23-11.35S259.71.78 244.14.58h-.19Z"/><circle cx="303.97" cy="18.84" r="5.85"/><circle cx="282.8" cy="441.54" r="8.86" class="cls-3"/><circle cx="5.79" cy="242.55" r="5.79" class="cls-1"/><path d="M413.71 246.79v-.03c-26.67 8.89-60.35 15.68-98.25 19.51-.12.22-.26.44-.4.65 35.09-3.5 67.24-9.61 94.02-18.03 1.59-.5 3.15-1.01 4.69-1.52-.04-.19-.07-.39-.07-.58ZM409.08 144.8c-44.03-13.84-102.56-21.46-164.81-21.46-129.21 0-234.32 32.97-234.32 73.5s105.12 73.5 234.32 73.5c18.43 0 36.53-.67 54.03-1.97a8.89 8.89 0 0 1-.51-.56 727.882 727.882 0 0 1-53.52 1.95c-128.88 0-233.74-32.71-233.74-72.92s104.85-72.92 233.74-72.92 232.67 32.71 232.67 72.92c0 16.21-16.97 31.2-45.63 43.32.43.03.85.07 1.27.12 29.18-12.51 44.95-27.58 44.95-43.44 0-19.69-24.3-38.18-68.44-52.05Z"/><path d="M387.53 322.04c-.5 1.99-1.02 3.98-1.56 5.96-7.71 28.27-18.73 53.77-32.74 75.78-29.13 45.77-67.67 70.98-108.51 70.98-20.73 0-40.96-6.45-60.12-19.18-18.41-12.23-35.01-29.65-49.35-51.8-14.28-22.06-25.52-47.55-33.4-75.78-8.15-29.18-12.28-59.82-12.28-91.07s4.13-61.81 12.27-90.84c7.87-28.07 19.11-53.39 33.39-75.27 14.32-21.94 30.92-39.2 49.34-51.29C203.71 6.96 223.93.58 244.68.58c40.9 0 79.44 24.94 108.53 70.23 14.02 21.84 25.04 47.16 32.75 75.27 7.95 28.99 11.99 59.55 11.99 90.84 0 24.47-2.47 48.54-7.35 71.79.2.01.39.02.59.04 4.87-23.27 7.34-47.35 7.34-71.83 0-31.34-4.04-61.96-12.01-91-7.73-28.17-18.77-53.54-32.83-75.43C324.5 25.04 285.79 0 244.68 0c-20.86 0-41.2 6.41-60.43 19.04-18.48 12.14-35.14 29.45-49.5 51.46-14.31 21.92-25.57 47.3-33.46 75.43-8.16 29.09-12.29 59.7-12.29 91s4.14 62 12.3 91.23c7.9 28.29 19.16 53.84 33.47 75.94 14.38 22.22 31.04 39.7 49.52 51.97 19.26 12.79 39.59 19.28 60.44 19.28 41.05 0 79.76-25.3 109-71.25 14.04-22.07 25.08-47.62 32.81-75.94.55-2.02 1.08-4.06 1.6-6.1-.2 0-.4 0-.6-.01Z"/><path d="M377.29 338.34c-20.56-5.75-45.02-10-71.7-12.58-.01.2-.03.4-.05.6 73.66 7.14 126.68 26.67 126.68 49.58 0 13.8-19.04 25.63-55.06 34.21-34.18 8.14-81.55 12.63-133.41 12.63s-99.23-4.49-133.41-12.63c-36.02-8.58-55.06-20.42-55.06-34.21 0-28.94 84.55-52.48 188.47-52.48 12.48 0 24.68.34 36.49.99v-.06c0-.18.02-.36.02-.54-11.9-.65-24.12-.98-36.51-.98-50.45 0-97.88 5.49-133.55 15.47-35.79 10.01-55.5 23.36-55.5 37.6s19.2 26.13 55.51 34.78c34.22 8.15 81.65 12.65 133.54 12.65s99.32-4.49 133.54-12.65c36.32-8.65 55.51-20.68 55.51-34.78s-19.71-27.59-55.5-37.6ZM226.02 235.25c5.97 0 11.99.06 18.03.2 36.82.8 71.66 3.54 102.57 7.72v-.55c-30.92-4.2-65.75-6.95-102.56-7.75-42.98-.93-84.41 1.52-120.07 6.59.22.16.45.31.66.48 30.46-4.29 65.12-6.68 101.36-6.68Z"/><path d="M354.51 243.73v.55c71.23 10.44 119.7 28.68 119.84 48.39.03 4.66-2.23 9.31-6.72 13.82-12.2 12.25-40.84 23.33-80.63 31.21-41.21 8.15-90.64 12.37-142.94 12.2-61.34-.2-119.37-6.64-163.39-18.13-42.93-11.2-67.55-26.27-67.55-41.36 0-4.7 2.36-9.39 7.01-13.94 13.3-13.02 43.52-23.84 83.31-31.13.14-.22.28-.44.43-.65-40.18 7.32-70.73 18.22-84.15 31.36-4.76 4.66-7.18 9.49-7.18 14.35 0 15.6 24.15 30.49 67.99 41.92 44.07 11.5 102.15 17.94 163.54 18.14h3.1c51.2 0 99.53-4.22 139.96-12.22 39.9-7.9 68.64-19.04 80.93-31.37 4.61-4.63 6.93-9.42 6.89-14.23-.15-19.95-48.86-38.41-120.42-48.94Z"/><path d="M72.36 245.97v7.15h10.13v3.46c-.22.29-.48.57-.71.84-.35.37-.68.7-1.03 1.03-1.3 1.28-2.64 2.31-4.05 3.1-2.33 1.32-4.78 1.98-7.38 1.98-2.18 0-4.16-.44-5.94-1.28-1.81-.86-3.37-2.05-4.71-3.59-.46-.51-.88-1.06-1.23-1.63-.22-.29-.4-.59-.57-.9-.53-.88-.95-1.81-1.32-2.82-.73-2.03-1.08-4.25-1.08-6.65 0-1.1.07-2.16.22-3.19.04-.31.11-.62.18-.92.13-.79.33-1.56.59-2.33.66-2.03 1.63-3.81 2.88-5.37 1.28-1.56 2.79-2.8 4.58-3.68 1.76-.9 3.72-1.37 5.83-1.37 2.71 0 5.2.68 7.51 2 1.5.86 2.77 1.96 3.83 3.3.4.53.77 1.08 1.1 1.67.13.24.26.48.4.75l7.29-5.37a18.92 18.92 0 0 0-3.06-4.4c-1.23-1.32-2.66-2.47-4.29-3.46-.09-.04-.18-.11-.26-.15-.26-.15-.53-.31-.81-.44-3.19-1.7-7-2.53-11.4-2.53-3.43 0-6.65.66-9.62 1.96a23.517 23.517 0 0 0-6.98 4.62c-.26.26-.53.53-.79.81-.49.51-.92 1.03-1.34 1.58a26.487 26.487 0 0 0-3.81 6.49c-.31.75-.57 1.5-.79 2.27-.11.31-.2.62-.26.9-.55 2.11-.84 4.29-.84 6.56 0 3.68.62 7.07 1.85 10.17.33.81.7 1.63 1.1 2.4.15.31.31.59.46.9.68 1.19 1.45 2.31 2.29 3.37.4.51.84 1.01 1.28 1.5 2.2 2.38 4.73 4.2 7.62 5.5 1.32.59 2.68 1.06 4.1 1.37 1.67.4 3.39.57 5.17.57 1.63 0 3.21-.2 4.71-.57 2.99-.75 5.75-2.22 8.26-4.45.35-.31.7-.64 1.04-.97l.02-.02v5.66h8.08v-25.84h-18.2ZM131.88 243.39c-.2-.35-.42-.66-.66-.99-.53-.79-1.17-1.56-1.85-2.27-1.69-1.76-3.74-3.13-6.12-4.14-2.4-.99-5.13-1.5-8.19-1.5s-5.66.51-8.08 1.5c-2.4 1.01-4.45 2.38-6.12 4.14a17.951 17.951 0 0 0-3.83 6.05c-.15.37-.29.77-.4 1.17-.11.37-.22.75-.31 1.12-.4 1.61-.6 3.3-.6 5.06 0 .31 0 .62.05.9 0 .35.02.68.04 1.01.15 1.83.57 3.57 1.21 5.26.88 2.27 2.16 4.29 3.87 6.05 1.69 1.78 3.74 3.19 6.12 4.2.53.24 1.08.44 1.65.62 1.96.62 4.11.92 6.45.92s4.49-.31 6.47-.92c.57-.18 1.12-.4 1.65-.62 2.38-1.01 4.43-2.42 6.12-4.2 1.26-1.3 2.29-2.75 3.13-4.36.15-.31.31-.64.44-.97.13-.24.24-.48.33-.73.88-2.27 1.34-4.65 1.34-7.18s-.46-5.06-1.34-7.35c-.4-.99-.86-1.92-1.39-2.8Zm-8.36 15.74c-.13.24-.26.48-.44.7-.15.33-.38.64-.64.95-.66.9-1.48 1.65-2.42 2.25-1.45.95-3.08 1.41-4.89 1.41s-3.44-.46-4.91-1.39c-1.5-.92-2.66-2.22-3.52-3.87-.24-.48-.44-.97-.62-1.5-.11-.35-.22-.7-.31-1.08-.22-.97-.33-1.98-.33-3.06 0-2.14.42-4.01 1.26-5.66.22-.44.46-.84.73-1.21.31-.44.64-.84.99-1.21.53-.57 1.12-1.06 1.76-1.47 1.45-.95 3.08-1.43 4.89-1.43s3.3.42 4.69 1.28c.09.04.18.09.26.15.35.22.68.48 1.01.75 1.01.84 1.83 1.89 2.49 3.15.88 1.65 1.32 3.5 1.32 5.59s-.44 4.01-1.32 5.66ZM163.16 239.25l-.37 1.12-7.57 22.88-7.27-21.58-.35-1.05-1.87-5.55h-9.78l2.43 6.52.39 1.03 7.71 20.74.41 1.12 2.65 7.11.08.22h10.26l.09-.22 1.98-5.33.38-1.03 9.51-25.52.41-1.12 1.3-3.52h-9l-1.39 4.18zM206.11 237.91c-.37-.29-.77-.55-1.19-.79-.15-.09-.29-.18-.44-.24-2.79-1.58-6.08-2.38-9.91-2.38-1.34 0-2.64.09-3.85.31-.37.04-.75.11-1.1.2-2 .42-3.83 1.12-5.48 2.11-.42.24-.81.51-1.19.79-.53.35-1.03.75-1.5 1.19a17.658 17.658 0 0 0-4.05 5.02c-1.58 2.93-2.38 6.12-2.38 9.58 0 2.55.46 4.95 1.37 7.2.88 2.24 2.18 4.25 3.9 5.99.02.02.05.04.07.04.4.44.81.81 1.26 1.19 1.41 1.19 3.02 2.14 4.82 2.91.53.22 1.06.4 1.61.57.57.18 1.17.33 1.78.46.37.07.73.13 1.12.2 1.15.18 2.33.26 3.57.26 2.4 0 4.58-.31 6.56-.92.35-.09.68-.2 1.01-.31 1.21-.44 2.31-.97 3.34-1.61.53-.31 1.04-.64 1.52-1.01.35-.26.68-.53 1.01-.81 1.65-1.48 2.91-3.15 3.76-5.04l-8.08-2.25c-.62 1.54-1.76 2.8-3.44 3.7a11.07 11.07 0 0 1-5.42 1.39 9.72 9.72 0 0 1-3.94-.81c-.22-.09-.42-.18-.64-.29-.15-.09-.31-.18-.46-.29a8.815 8.815 0 0 1-3.06-2.86c-.92-1.37-1.45-3.02-1.61-4.95h28.62c.04-.37.09-.84.13-1.37a19 19 0 0 0 .07-1.72c0-3.37-.77-6.47-2.33-9.33-1.32-2.44-3.15-4.49-5.46-6.12ZM184.8 250.5c.2-1.85.73-3.46 1.61-4.82.81-1.3 1.89-2.33 3.21-3.06.04-.04.11-.07.18-.11.29-.15.59-.31.92-.44 1.15-.48 2.4-.7 3.72-.7 1.74 0 3.32.37 4.73 1.14 1.43.75 2.58 1.8 3.44 3.17.88 1.37 1.41 2.97 1.61 4.82H184.8ZM241.11 234.25c-.29.02-.66 0-1.14-.04-2.03.11-3.94.77-5.79 1.94l-.68.46c-.29.22-.57.44-.86.66-1.67 1.41-3.08 3.19-4.2 5.37v-7.57h-8.72v36.74h9.42v-22.52c1.03-2.07 2.69-3.65 4.95-4.71 2.27-1.06 4.87-1.61 7.79-1.65v-8.58c-.24-.09-.48-.13-.77-.09ZM279.52 239.05c-.29-.51-.59-.97-1.01-1.39-.33-.42-.73-.81-1.19-1.14-.37-.31-.77-.57-1.21-.81-1.47-.81-3.39-1.21-5.7-1.21-2.16 0-4.2.31-6.08.9-.7.22-1.37.48-2 .79-.73.31-1.41.66-2.05 1.08-.35.2-.68.42-.99.66-1.45 1.06-2.66 2.4-3.61 3.98v-6.85h-8.56v36.74h9.42v-21.42c.57-1.48 1.34-2.77 2.38-3.92 1.01-1.12 2.16-2 3.45-2.66 1.3-.64 2.6-.97 3.87-.97 1.87 0 3.33.68 4.34 2.03 1.01 1.37 1.54 3.5 1.54 6.43v20.52h9.49v-22.96c0-1.74-.15-3.46-.46-5.15s-.86-3.26-1.63-4.65ZM321.68 261.22v-11.65c0-4.12-1.03-7.42-3.15-9.88-.33-.42-.7-.81-1.12-1.17-.04-.07-.11-.11-.15-.15-2.95-2.6-7.07-3.87-12.35-3.87-.15 0-.29 0-.44.02-.37-.02-.73 0-1.1.02-2.29.11-4.47.48-6.56 1.12-1.23.37-2.47.84-3.68 1.43-.66.31-1.3.66-1.96 1.03h-.02c-.62.37-1.21.75-1.83 1.17l2.97 6.16c2.02-1.32 3.96-2.33 5.81-3.04 1.67-.64 3.41-.99 5.26-1.03.2-.02.42-.02.62-.02h.48c2.49.09 4.4.68 5.68 1.87 1.37 1.25 2.05 3.02 2.05 5.28v2.05c-1.17-.53-2.58-.9-4.18-1.14-1.21-.15-2.38-.29-3.57-.33-.35-.02-.73-.02-1.1-.02h-.07c-3.17 0-5.94.51-8.32 1.52-2.38.99-4.25 2.38-5.59 4.16-1.34 1.76-2.02 3.85-2.02 6.23 0 2.14.55 4.09 1.67 5.83.37.62.82 1.17 1.34 1.7.31.37.68.73 1.1 1.03a11.4 11.4 0 0 0 2.16 1.43c.44.24.9.44 1.37.62 1.61.62 3.34.92 5.26.92.97 0 1.92-.09 2.88-.26.38-.07.75-.13 1.1-.24.51-.11.99-.26 1.5-.42.62-.22 1.25-.48 1.87-.77 1.47-.7 2.82-1.56 4.01-2.64.44-.35.84-.75 1.23-1.17.29-.33.57-.66.86-1.01l.09.92.11.99s0 .07.02.09c.2 1.19.77 2.18 1.72 2.99.29.24.62.44.99.59.88.44 1.98.64 3.3.64.46.04 1.03.02 1.74-.07.68-.09 1.45-.22 2.29-.35v-7.73c-.79-.09-1.39-.33-1.74-.77-.35-.42-.53-1.1-.53-2.09Zm-9.49-1.58c0 .42-.15.92-.48 1.52s-.77 1.12-1.28 1.58c-.86.84-1.96 1.52-3.32 2.07-.92.37-1.85.62-2.77.75-.37.04-.73.07-1.1.07-.11.02-.2.02-.31.02-1.43 0-2.62-.24-3.59-.75-.97-.51-1.69-1.19-2.22-2.05-.53-.86-.77-1.74-.77-2.66 0-1.7.79-3.06 2.35-4.09.42-.26.84-.51 1.32-.7.97-.42 2.07-.68 3.3-.79.35-.04.73-.07 1.1-.07h.33c.6 0 1.21.04 1.85.09.62.07 1.26.18 1.92.29 1.32.26 2.55.62 3.68 1.08v3.65ZM364.56 243.7a3.1 3.1 0 0 0-.11-.51c-.31-1.5-.84-2.88-1.52-4.14-.77-1.41-1.92-2.51-3.41-3.35-1.47-.81-3.37-1.21-5.68-1.21-2.18 0-4.2.31-6.1.9-1.89.62-3.57 1.45-5.02 2.53-.99.7-1.87 1.54-2.6 2.51-.26.31-.51.64-.71.99-.13.15-.22.31-.33.48v-6.85h-8.56v36.74h9.42v-21.42c.57-1.48 1.37-2.77 2.38-3.92 1.01-1.12 2.16-2 3.46-2.66 1.3-.64 2.6-.97 3.87-.97 1.89 0 3.32.68 4.36 2.03 1.01 1.37 1.52 3.5 1.52 6.43v20.52h9.49v-22.96c0-1.54-.13-3.08-.37-4.58-.02-.2-.04-.37-.09-.57ZM396.42 262.28c-.81.68-1.72 1.23-2.71 1.61-1.01.37-2.09.55-3.26.55-1.81 0-3.44-.46-4.89-1.39-1.47-.92-2.64-2.22-3.52-3.87-.05-.11-.11-.22-.15-.33-.15-.31-.29-.62-.42-.95-.49-1.34-.73-2.82-.73-4.42 0-2.22.44-4.14 1.3-5.77.15-.31.33-.59.53-.86.2-.33.44-.64.7-.95.64-.79 1.41-1.45 2.29-1.98 1.45-.9 3.06-1.36 4.8-1.36s3.15.37 4.47 1.1c1.32.75 2.38 1.78 3.19 3.15l9.2-2.82c-1.36-2.84-3.5-5.13-6.38-6.87-2.86-1.76-6.32-2.62-10.33-2.62s-7.48.86-10.41 2.58c-2.93 1.74-5.17 4.05-6.74 6.93-.06.13-.13.24-.18.37-.18.33-.33.66-.48.99-1.1 2.51-1.67 5.22-1.67 8.1 0 2.11.33 4.18.99 6.14.09.33.2.66.33.99 0 .02 0 .07.02.09.9 2.27 2.2 4.31 3.9 6.12 1.69 1.8 3.74 3.19 6.12 4.2.53.22 1.06.4 1.61.57 1.98.62 4.18.92 6.58.92s4.47-.31 6.41-.92c.35-.09.66-.2.99-.31 2.2-.84 4.12-1.98 5.74-3.43 1.63-1.48 2.86-3.13 3.72-4.95l-9.22-2.84c-.37.79-.97 1.54-1.8 2.22ZM448.52 247.18c-.35-1.08-.82-2.14-1.37-3.15-.6-1.08-1.28-2.07-2.05-2.99-.22-.24-.44-.51-.66-.73-.4-.44-.81-.84-1.25-1.21-.82-.73-1.72-1.39-2.69-1.98-2.88-1.74-6.34-2.62-10.34-2.62s-7.53.88-10.44 2.62c-2.91 1.76-5.15 4.09-6.74 7a18.84 18.84 0 0 0-1.43 3.37c-.37 1.14-.64 2.31-.77 3.54-.02.07-.02.15-.02.24-.04.26-.07.53-.09.79-.02.07-.02.15-.02.24-.02.46-.05.92-.05 1.39 0 1.45.15 2.86.46 4.2.2 1.03.51 2.03.88 2.99.9 2.24 2.2 4.25 3.9 5.99 1.72 1.76 3.76 3.13 6.16 4.14.53.22 1.06.4 1.61.57 1.98.62 4.14.92 6.47.92s4.56-.31 6.56-.92c.35-.09.68-.2 1.01-.31 2.27-.84 4.23-1.98 5.88-3.43 1.65-1.48 2.91-3.15 3.76-5.04l-8.08-2.25c-.62 1.54-1.76 2.8-3.43 3.7a11.07 11.07 0 0 1-5.42 1.39c-1.61 0-3.13-.37-4.58-1.1a9.586 9.586 0 0 1-3.55-3.15c-.9-1.37-1.43-3.02-1.58-4.95h28.62c.05-.37.09-.84.13-1.37.04-.55.06-1.12.06-1.72 0-2.18-.33-4.23-.97-6.19Zm-28.13 3.32c.04-.33.09-.66.15-.97.04-.37.13-.73.24-1.06.26-1.03.66-1.96 1.21-2.8a8.705 8.705 0 0 1 3.13-3.02c.09-.04.17-.11.26-.15 1.39-.77 2.93-1.14 4.65-1.14s3.32.37 4.73 1.14c.5.26.97.57 1.41.92.29.22.57.46.81.73.46.44.86.97 1.21 1.52.88 1.37 1.41 2.97 1.61 4.82h-19.42ZM128.15 298.22a13.18 13.18 0 0 0-4.14-5.17c-1.83-1.34-3.99-2-6.47-2H97.2l-4.69 22.06-.97 4.53-.48 2.29-2.55 12.06-.2.97-.24 1.1-1.54 7.26h9.69l.09-.4.24-1.17.35-1.63.44-2.05.02-.13.24-1.12 1.14-5.33 1.08-5.04h10.92c.95 0 1.87-.07 2.75-.22 1.58-.26 3.08-.77 4.51-1.47 2.22-1.14 4.23-2.64 5.97-4.53 1.45-1.56 2.64-3.28 3.57-5.13.2-.37.37-.77.55-1.17.99-2.31 1.47-4.67 1.47-7.02s-.46-4.58-1.41-6.69Zm-13.4 16.88c-.92.53-1.89.79-2.88.79h-10.26l.59-2.8 2.86-13.49h9.93c.84 0 1.63.24 2.33.7.71.48 1.26 1.17 1.67 2.09.4.92.6 2.03.6 3.3 0 1.41-.2 2.75-.6 3.98-.42 1.25-.99 2.36-1.74 3.26-.04.04-.09.11-.13.15-.73.86-1.52 1.52-2.38 2ZM156.72 304.21h-1.1c-2.11.04-4.31.79-6.58 2.25-2.27 1.45-4.29 3.43-6.1 5.97l1.72-7.86h-8.72l-1.85 8.54-4.01 18.58-.24 1.17-1.52 7.09-.24 1.08-.06.31h9.55l.04-.15 2.13-10.08.24-1.14 2.31-10.94c1.39-2.03 3.26-3.57 5.64-4.6a20.042 20.042 0 0 1 7.61-1.63l1.76-8.41c-.13-.11-.33-.15-.6-.15ZM162.71 304.56l-1.85 8.54-3.06 14.2-.24 1.14-2.78 12.88h9.56l3.01-14.07.24-1.14 2.77-13.01 1.83-8.54h-9.49Zm3.04-14.57-1.92 9.33h9.49l1.98-9.33h-9.55ZM210.79 308.17a6.371 6.371 0 0 0-2.55-3.06c-1.19-.75-2.86-1.12-5.02-1.12-1.98 0-3.94.31-5.88.92-1.94.59-3.72 1.45-5.35 2.51-.09.07-.2.13-.29.2-.37.26-.73.53-1.08.81-1.08.86-2.05 1.87-2.93 2.99l1.5-6.87h-8.56l-1.85 8.54-2.62 12.09-.24 1.17-3.24 14.97h9.58l3.41-15.87.24-1.12.95-4.45a14.37 14.37 0 0 1 2.93-3.9c.35-.33.71-.64 1.08-.9.35-.31.7-.57 1.08-.81.53-.35 1.08-.68 1.63-.95.18-.09.35-.15.51-.22 1.14-.51 2.2-.75 3.19-.75s1.8.24 2.46.75c.18.11.33.24.46.4.73.77 1.1 1.98 1.1 3.61 0 .55-.04 1.12-.11 1.74-.06.59-.2 1.25-.4 1.96l-.53 2.49-.24 1.12-3.61 16.91h9.49l3.72-17.43.22-1.12.95-4.42c.24-.92.42-1.89.57-2.91.11-.77.18-1.56.18-2.33.02-.22.02-.42.02-.64 0-1.58-.24-3.02-.77-4.29ZM237.91 331.79c-.86.68-1.78 1.21-2.8 1.58-1.01.4-2.07.57-3.15.57-1.28 0-2.44-.35-3.52-1.08-1.06-.7-1.87-1.72-2.44-2.97-.55-1.28-.84-2.75-.84-4.42 0-.75.04-1.47.18-2.18.02-.37.09-.75.2-1.12.13-.68.33-1.34.57-1.98.64-1.61 1.5-3.04 2.6-4.27 1.06-1.19 2.31-2.16 3.7-2.82.02 0 .02-.02.04-.02 1.43-.68 2.86-1.01 4.31-1.01s2.73.35 3.76 1.03c.02 0 .02.02.05.02 1.01.73 1.74 1.78 2.22 3.19l9.77-2.84c-.04-.13-.06-.26-.11-.37-.79-2.64-2.31-4.82-4.53-6.49-2.33-1.74-5.48-2.62-9.44-2.62-3.41 0-6.52.64-9.36 1.87s-5.28 2.91-7.33 5.04c-.68.7-1.3 1.43-1.87 2.2a22.187 22.187 0 0 0-2.91 5.04c-.6 1.43-1.03 2.88-1.32 4.36-.06.35-.13.73-.17 1.1-.13.97-.2 1.96-.2 2.95 0 2.8.57 5.37 1.74 7.7 1.15 2.33 2.84 4.2 5.09 5.64 2.24 1.41 5.02 2.14 8.32 2.14 2.6 0 5.04-.42 7.33-1.23 2.29-.84 4.36-1.98 6.23-3.46 1.87-1.45 3.39-3.1 4.58-4.95l-8.72-2.82c-.48.79-1.14 1.54-1.98 2.22ZM260.21 304.56l-1.85 8.54-1.89 8.85-.24 1.1-3.94 18.27h9.55l3.88-18.09.22-1.1 1.94-9.03 1.83-8.54h-9.49Zm3.04-14.57-1.89 9.33h9.49l1.98-9.33h-9.57ZM310.73 313.1c-.2-.57-.42-1.12-.66-1.67-1.06-2.29-2.53-4.09-4.47-5.44-.66-.44-1.34-.81-2.09-1.12-.35-.13-.73-.26-1.1-.37-1.15-.33-2.4-.51-3.74-.51-2.64 0-5.13.64-7.44 1.87-2.31 1.23-4.36 2.93-6.16 5.06l1.34-6.36h-8.34l-1.83 8.54-1.98 9.29-.22 1.08-5.11 23.97-.24 1.12-.53 2.42-1.14 5.42h9.49l1.17-5.42.55-2.66.24-1.12 2.64-12.33c.66 2.16 1.89 3.87 3.68 5.19 1.8 1.3 4.05 1.96 6.74 1.96s5.17-.62 7.62-1.85c.6-.31 1.17-.64 1.72-1.01.37-.22.75-.48 1.12-.77 1.3-.95 2.49-2.05 3.59-3.35 1.87-2.16 3.35-4.62 4.42-7.37.26-.64.49-1.28.68-1.94.11-.35.2-.73.29-1.1.44-1.81.66-3.68.66-5.59 0-2.14-.29-4.12-.88-5.94Zm-10.06 12.37a14.79 14.79 0 0 1-2.58 4.31 13.713 13.713 0 0 1-3.68 3.02 8.887 8.887 0 0 1-4.4 1.14c-1.17 0-2.29-.31-3.33-.92a7.366 7.366 0 0 1-2.51-2.6c-.64-1.1-1.1-2.33-1.39-3.68l.64-2.88.24-1.08 1.03-4.65c.46-.92 1.08-1.74 1.85-2.44.75-.73 1.56-1.34 2.44-1.89.4-.26.81-.51 1.23-.7.46-.22.95-.42 1.41-.57.9-.31 1.78-.46 2.62-.46 1.45 0 2.71.35 3.79 1.03.07.02.11.07.15.09 1.1.73 1.96 1.76 2.55 3.04.57 1.3.88 2.77.88 4.38 0 1.08-.15 2.16-.44 3.24-.09.35-.2.73-.35 1.08-.05.18-.11.37-.18.55ZM328.25 333.88c-1.94 0-2.91-.97-2.91-2.91 0-.24.02-.48.04-.73.02-.22.07-.48.11-.77l.46-2.22.24-1.08 2.8-13.08 5-23.49h-9.49l-5 23.49-2.55 12.09-.24 1.1-1.41 6.65c-.11.42-.17.86-.22 1.32-.04.44-.07.9-.07 1.36 0 2.05.64 3.61 1.94 4.73 1.3 1.12 3.13 1.67 5.5 1.67 1.41 0 2.97-.18 4.67-.51 1.7-.33 3.24-.79 4.6-1.41l.29-7.22c-.62.33-1.28.57-1.96.75-.68.15-1.28.24-1.8.24ZM361.73 331.41c-.24.33-.57.66-.92.95-.6.53-1.28 1.01-2 1.41-1.67.92-3.46 1.39-5.35 1.39-1.69 0-3.08-.37-4.16-1.12a6.629 6.629 0 0 1-2.44-2.99c-.15-.35-.29-.7-.37-1.08-.13-.37-.22-.77-.26-1.17-.13-.66-.18-1.34-.18-2.07 0-.29.02-.55.05-.81.37.02.77.04 1.14.07 1.65.07 3.19.11 4.6.11 7.13 0 12.48-1.01 16-3.02 3.54-2 5.35-4.95 5.39-8.83 0-.4-.02-.77-.07-1.14-.15-1.72-.68-3.19-1.56-4.47-1.08-1.54-2.64-2.71-4.65-3.48-2-.77-4.34-1.17-6.98-1.17-3.3 0-6.36.59-9.2 1.81-2.82 1.19-5.31 2.82-7.44 4.89-.77.77-1.5 1.58-2.09 2.42a20.69 20.69 0 0 0-2.86 4.76c-1.17 2.71-1.76 5.59-1.76 8.63 0 .33 0 .64.02.97.02.37.04.75.09 1.12.22 2.18.79 4.16 1.72 5.94 1.23 2.33 2.99 4.18 5.26 5.5 2.25 1.34 4.95 2 8.06 2 .57 0 1.14-.02 1.69-.09.66-.02 1.32-.11 1.98-.22 1.19-.22 2.38-.53 3.54-.92 2.38-.84 4.53-1.98 6.52-3.46 1.39-1.01 2.6-2.14 3.59-3.37.26-.31.51-.62.73-.95.2-.22.35-.46.51-.7l-7.51-2.27c-.31.48-.66.95-1.08 1.36Zm-8.1-19.26c1.54-.86 3.21-1.3 5-1.3 1.14 0 2.11.15 2.95.46.81.31 1.47.73 1.94 1.32.11.15.22.31.31.46.26.48.37 1.08.33 1.78.04 1.06-.33 1.98-1.12 2.77-.81.77-2.09 1.36-3.87 1.78-1.76.42-4.18.64-7.24.64-1.39 0-2.75-.04-4.16-.15-.13 0-.26-.02-.42-.02.57-1.56 1.34-2.97 2.31-4.23.77-1.01 1.63-1.87 2.58-2.58.44-.35.92-.66 1.41-.95ZM403.38 324.66c-.68-.95-1.7-1.78-2.97-2.49-.29-.18-.57-.31-.88-.46-.05-.02-.07-.02-.11-.04-1.69-.79-3.83-1.56-6.36-2.29-2.22-.64-3.74-1.21-4.58-1.7-.75-.44-1.14-1.1-1.19-1.98-.04-.09-.04-.18-.04-.26 0-.92.22-1.7.68-2.33.05-.07.09-.13.13-.2.53-.66 1.3-1.17 2.27-1.52.97-.35 2.07-.53 3.28-.53 1.65 0 3.17.31 4.58.9.75.33 1.52.77 2.31 1.34.33.22.66.48.99.79.31.24.62.53.92.84.05.02.09.07.13.11l1.54-1.74 3.48-3.94c-.97-1.06-2.03-1.94-3.17-2.66-.33-.2-.66-.4-.99-.57a13.5 13.5 0 0 0-1.5-.68c-2.14-.84-4.54-1.25-7.22-1.25-3.13 0-5.94.62-8.48 1.83-2.53 1.21-4.53 2.82-6.05 4.82-.59.77-1.06 1.58-1.41 2.47-.57 1.39-.86 2.91-.86 4.53 0 1.52.4 2.8 1.17 3.81.51.64 1.17 1.21 1.98 1.72.46.31.99.59 1.56.86 1.58.73 3.61 1.48 6.05 2.27 2.22.62 3.85 1.21 4.89 1.78 1.04.59 1.56 1.48 1.56 2.62 0 .88-.26 1.65-.79 2.33-.51.68-1.23 1.21-2.18 1.58-.95.35-2.11.55-3.48.55-1.89 0-3.76-.42-5.66-1.25-.66-.29-1.32-.62-1.96-1.01-1.21-.68-2.4-1.54-3.57-2.55l-3.02 3.65-.77.95-1.03 1.28c.95 1.08 2.05 2 3.32 2.8.48.31 1.01.59 1.56.84.51.26 1.01.48 1.56.68.64.24 1.28.44 1.94.64 2.07.57 4.27.86 6.56.86 1.94 0 3.72-.18 5.37-.53.46-.11.88-.22 1.32-.35.55-.15 1.08-.33 1.58-.55.24-.09.48-.18.71-.29.26-.11.53-.24.77-.35 2.18-1.12 3.92-2.53 5.2-4.29.02-.04.06-.09.09-.13.29-.4.55-.84.75-1.25.35-.64.59-1.28.79-1.96.33-1.08.49-2.22.49-3.43 0-1.01-.15-1.94-.49-2.75-.2-.53-.46-1.03-.79-1.48ZM80.72 155.07v20.32H57.91v-20.32h-9.77v50.28h9.77v-21.46h22.81v21.46h9.71v-50.28h-9.71ZM133.62 177.56c-.22-.4-.46-.79-.7-1.19-1.5-2.31-3.5-4.2-5.97-5.72-2.86-1.76-6.32-2.64-10.33-2.64s-7.55.88-10.46 2.64a18.065 18.065 0 0 0-5.97 5.72c-.26.42-.51.84-.75 1.28-1.58 2.91-2.38 6.1-2.38 9.55 0 2.58.44 4.98 1.34 7.22.9 2.25 2.2 4.23 3.9 5.99 1.7 1.74 3.76 3.13 6.16 4.12.77.33 1.59.59 2.42.81 1.74.46 3.63.7 5.66.7s4.03-.24 5.83-.7c.6-.15 1.17-.33 1.74-.53 2.27-.84 4.23-1.98 5.88-3.46 1.65-1.45 2.91-3.13 3.74-5.02l-8.06-2.27c-.62 1.56-1.76 2.8-3.43 3.72-1.7.92-3.5 1.39-5.44 1.39a9.76 9.76 0 0 1-4.56-1.12 9.312 9.312 0 0 1-3.54-3.15c-.92-1.34-1.45-2.99-1.58-4.93h28.6c.04-.37.11-.84.15-1.39.05-.53.07-1.1.07-1.72 0-3.35-.77-6.47-2.33-9.31Zm-26.77 6.45c.18-1.83.73-3.43 1.58-4.8.77-1.19 1.69-2.14 2.86-2.84.18-.13.35-.24.55-.35 1.39-.75 2.93-1.14 4.62-1.14s3.34.4 4.75 1.14c.2.11.37.22.55.35 1.17.7 2.11 1.65 2.88 2.84.88 1.36 1.41 2.97 1.58 4.8h-19.39ZM174.08 196.85c-.35-.42-.53-1.12-.53-2.09v-11.67c0-2.55-.4-4.8-1.23-6.71-.7-1.76-1.78-3.26-3.19-4.49-2.95-2.58-7.07-3.87-12.35-3.87-2.84 0-5.55.4-8.12 1.17-2.58.79-5.06 2-7.46 3.65l1.72 3.54 1.25 2.62c1.67-1.08 3.28-1.96 4.82-2.62.33-.15.66-.29.99-.42 1.85-.7 3.79-1.08 5.88-1.08 2.42 0 4.31.51 5.68 1.5.18.13.33.26.48.4 1.37 1.25 2.05 3.02 2.05 5.28v2.05c-1.19-.53-2.58-.9-4.18-1.14-1.61-.24-3.19-.35-4.73-.35-3.17 0-5.94.51-8.32 1.5-2.4 1.01-4.25 2.4-5.59 4.18-1.37 1.76-2.03 3.83-2.03 6.21 0 2.16.55 4.09 1.67 5.86 1.1 1.74 2.64 3.13 4.6 4.16.66.33 1.34.62 2.05.84 1.41.46 2.93.7 4.56.7s3.21-.24 4.78-.7c.88-.26 1.74-.59 2.6-.99 2.4-1.14 4.42-2.75 6.1-4.82l.2 1.91c.2 1.23.77 2.25 1.74 3.08.42.35.95.64 1.54.81.77.29 1.69.42 2.75.42.46.04 1.03.02 1.72-.07.68-.11 1.45-.22 2.31-.35v-7.73c-.81-.09-1.39-.35-1.74-.77Zm-10.02-3.68c0 .42-.18.92-.48 1.52-.35.59-.77 1.12-1.28 1.59-.86.84-1.96 1.52-3.34 2.07-1.37.55-2.75.84-4.16.84s-2.62-.26-3.59-.77c-.97-.51-1.72-1.19-2.22-2.03-.53-.86-.79-1.74-.79-2.66 0-1.7.79-3.08 2.38-4.12 1.59-1.03 3.61-1.54 6.05-1.54 1.19 0 2.44.13 3.76.37 1.32.26 2.55.62 3.68 1.08v3.65ZM199.46 196.85c-.61.33-1.3.57-2.09.77-.77.2-1.59.29-2.44.29-.92 0-1.7-.31-2.27-.88-.55-.59-.84-1.78-.84-3.52v-39.87h-9.49v43.32c0 2.88.81 5.13 2.44 6.71.75.73 1.63 1.3 2.66 1.67.73.29 1.52.48 2.4.57.35.07.71.09 1.08.11.24.02.48.02.75.02 1.43 0 2.97-.18 4.65-.51.31-.07.62-.13.9-.2 1.3-.31 2.49-.7 3.52-1.21l-1.28-7.29ZM224.82 195.92c-.62.29-1.39.59-2.33.95-.95.35-1.89.53-2.84.53-1.03 0-1.89-.29-2.55-.86-.66-.59-1.01-1.52-1.06-2.77v-17.96h7.79v-7.22h-7.79v-12.04h-9.55v12.04h-4.82v7.22h4.82v21.2c0 2.14.44 3.9 1.3 5.22.88 1.34 2.05 2.31 3.5 2.91.22.09.42.18.64.22 1.3.48 2.73.7 4.25.7 1.32 0 2.64-.13 3.94-.4.44-.09.9-.2 1.32-.31.81-.2 1.56-.42 2.29-.68 1.1-.4 2.09-.79 2.93-1.17l-1.83-7.57ZM265.61 177.15c-.05-.26-.11-.51-.18-.77a15.16 15.16 0 0 0-1.56-3.87c-.84-1.41-2-2.49-3.54-3.28-1.54-.81-3.5-1.21-5.92-1.21-2.77 0-5.33.66-7.68 1.96-2.33 1.32-4.23 3.15-5.7 5.48v-21.82h-9.4v51.71h9.4v-21.44c.53-1.47 1.3-2.77 2.31-3.9 1.01-1.12 2.16-2.03 3.43-2.66 1.28-.64 2.49-.97 3.61-.97 1.94 0 3.46.7 4.58 2.09 1.1 1.41 1.65 3.52 1.65 6.36v20.52h9.49v-22.98c0-1.76-.15-3.5-.48-5.22ZM340.21 176.38c-.35-3.17-1.19-6.14-2.53-8.89-1.85-3.79-4.6-6.82-8.28-9.05-1.81-1.1-3.83-1.92-6.05-2.49-1.32-.33-2.71-.57-4.16-.7a36.19 36.19 0 0 0-3.52-.18H297.4v50.28h18.27c5.04 0 9.42-1.06 13.12-3.13 3.72-2.07 6.58-5 8.61-8.78 2.03-3.76 3.04-8.21 3.04-13.32 0-1.28-.07-2.53-.22-3.74Zm-11.33 12.23c-1.17 2.51-2.84 4.49-5.04 5.97-2.2 1.45-4.91 2.18-8.17 2.18h-8.5v-33.13h8.5c3.15 0 5.83.7 8.06 2.09 2.22 1.39 3.92 3.32 5.11 5.81.71 1.48 1.19 3.08 1.47 4.84.2 1.19.29 2.44.29 3.74 0 3.17-.57 6.01-1.72 8.5ZM376.73 196.85c-.35-.42-.53-1.12-.53-2.09v-11.67c0-2.55-.4-4.8-1.23-6.71-.71-1.76-1.78-3.26-3.19-4.49-2.95-2.58-7.07-3.87-12.35-3.87-2.84 0-5.55.4-8.12 1.17-2.58.79-5.06 2-7.46 3.65l1.72 3.54 1.26 2.62c1.67-1.08 3.28-1.96 4.82-2.62.33-.15.66-.29.99-.42 1.83-.7 3.79-1.08 5.88-1.08 2.42 0 4.31.51 5.68 1.5.18.13.33.26.49.4 1.36 1.25 2.05 3.02 2.05 5.28v2.05c-1.19-.53-2.58-.9-4.18-1.14-1.61-.24-3.19-.35-4.73-.35-3.17 0-5.94.51-8.32 1.5-2.4 1.01-4.25 2.4-5.59 4.18-1.37 1.76-2.03 3.83-2.03 6.21 0 2.16.55 4.09 1.67 5.86 1.1 1.74 2.64 3.13 4.6 4.16.66.33 1.34.62 2.05.84 1.41.46 2.93.7 4.56.7s3.21-.24 4.78-.7c.88-.26 1.74-.59 2.6-.99 2.4-1.14 4.42-2.75 6.1-4.82l.2 1.91c.2 1.23.77 2.25 1.74 3.08.42.35.95.64 1.54.81.77.29 1.7.42 2.75.42.46.04 1.03.02 1.72-.07.68-.11 1.45-.22 2.31-.35v-7.73c-.81-.09-1.39-.35-1.74-.77Zm-10.01-3.68c0 .42-.18.92-.51 1.52a6.6 6.6 0 0 1-1.25 1.59c-.86.84-1.96 1.52-3.35 2.07-1.37.55-2.75.84-4.16.84s-2.62-.26-3.59-.77c-.97-.51-1.72-1.19-2.22-2.03-.53-.86-.79-1.74-.79-2.66 0-1.7.79-3.08 2.38-4.12 1.58-1.03 3.61-1.54 6.05-1.54 1.19 0 2.44.13 3.76.37 1.32.26 2.55.62 3.68 1.08v3.65ZM405.09 195.92c-.59.29-1.39.59-2.33.95-.95.35-1.89.53-2.82.53-1.06 0-1.89-.29-2.55-.86-.66-.59-1.01-1.52-1.06-2.77v-17.96h7.4c-.53-2.42-1.08-4.82-1.69-7.22h-5.7v-12.04h-9.58v12.04h-4.8v7.22h4.8v21.2c0 2.14.44 3.9 1.32 5.22a7.476 7.476 0 0 0 3.5 2.91c.2.09.4.15.62.22 1.27.48 2.71.7 4.27.7 1.32 0 2.64-.13 3.94-.4.44-.09.9-.2 1.32-.31.79-.2 1.56-.42 2.29-.68 1.1-.4 2.07-.79 2.93-1.17l-1.85-7.57ZM444.23 196.85c-.35-.42-.55-1.12-.55-2.09v-11.67c0-2.55-.4-4.8-1.23-6.71-.7-1.76-1.78-3.26-3.19-4.49-2.95-2.58-7.07-3.87-12.35-3.87-2.84 0-5.52.4-8.1 1.17-2.58.79-5.06 2-7.49 3.65l1.72 3.54 1.28 2.62c1.67-1.1 3.28-1.98 4.82-2.62.33-.15.66-.29.97-.42 1.85-.7 3.81-1.08 5.88-1.08 2.44 0 4.34.51 5.68 1.5.18.13.33.26.48.4 1.37 1.25 2.05 3.02 2.05 5.28v2.05c-1.17-.53-2.55-.9-4.16-1.14a32.16 32.16 0 0 0-4.76-.35c-3.17 0-5.94.51-8.32 1.5-2.38 1.01-4.25 2.4-5.59 4.18-1.34 1.76-2.03 3.83-2.03 6.21 0 2.16.57 4.09 1.67 5.86 1.1 1.74 2.64 3.13 4.6 4.16.66.33 1.34.62 2.05.84 1.41.46 2.93.7 4.58.7s3.19-.24 4.76-.7c.88-.26 1.74-.59 2.6-.99 2.42-1.14 4.45-2.75 6.1-4.82l.22 1.91c.18 1.23.75 2.25 1.72 3.08.42.35.95.64 1.54.81.77.29 1.69.42 2.75.42.46.04 1.06.02 1.74-.07.68-.11 1.45-.22 2.29-.35v-7.73c-.79-.09-1.37-.35-1.72-.77Zm-10.04-3.68c0 .42-.15.92-.48 1.52-.33.59-.75 1.12-1.28 1.59-.86.84-1.96 1.52-3.32 2.07s-2.77.84-4.18.84-2.6-.26-3.56-.77c-.97-.51-1.72-1.19-2.25-2.03-.51-.86-.77-1.74-.77-2.66 0-1.7.79-3.08 2.38-4.12 1.58-1.03 3.59-1.54 6.05-1.54 1.17 0 2.42.13 3.74.37 1.32.26 2.55.62 3.68 1.08v3.65Z"/><circle cx="303.97" cy="18.84" r="5.85" class="cls-1"/><circle cx="431.12" cy="382.77" r="5.85" class="cls-1"/><circle cx="124.83" cy="385.78" r="8.86" class="cls-2"/><circle cx="118.4" cy="100.58" r="5.85" class="cls-3"/><circle cx="366.79" cy="94.12" r="8.86" class="cls-2"/></svg>