<svg viewBox="0 0 486.92 99.49" xmlns="http://www.w3.org/2000/svg" xmlns:xlink="http://www.w3.org/1999/xlink"><clipPath id="a"><path d="m0 15.69h108.58v82.49h-108.58z"/></clipPath><clipPath id="b"><path d="m166.18 0h160.86v99.49h-160.86z"/></clipPath><clipPath id="c"><path d="m390.15 4.17h96.77v94.3h-96.77z"/></clipPath><g fill="#611ca6"><g clip-path="url(#a)" opacity=".86"><path d="m58.83 35.79v-7.87c0-.67-.54-1.21-1.21-1.21h-6.66c-.67 0-1.21.54-1.21 1.21v7.87h-7.87c-.67 0-1.21.54-1.21 1.21v6.66c0 .67.54 1.21 1.21 1.21h7.87v7.86c0 .67.54 1.21 1.21 1.21h6.66c.67 0 1.21-.54 1.21-1.21v-7.86h7.87c.67 0 1.21-.54 1.21-1.21v-6.66c0-.67-.54-1.21-1.21-1.21z"/><path d="m104.95 15.69h-101.32c-2 0-3.63 1.62-3.63 3.63v15.47c0 2 1.62 3.63 3.63 3.63h8.8v57.33c0 1.34 1.08 2.42 2.42 2.42h17.9c1.34 0 2.42-1.08 2.42-2.42v-30.79h38.25v30.79c0 1.34 1.08 2.42 2.42 2.42h17.91c1.34 0 2.42-1.08 2.42-2.42v-57.33h8.79c2 0 3.63-1.63 3.63-3.63v-15.47c0-2-1.63-3.63-3.63-3.63m-50.67 42.79c-10.03 0-18.16-8.13-18.16-18.16s8.13-18.16 18.16-18.16 18.16 8.13 18.16 18.16-8.13 18.16-18.16 18.16"/></g><g clip-path="url(#b)" opacity=".86"><path d="m266.52 62.5 19.42 12.34c2.23 1.42 2.75 4.44 1.12 6.52-1.42 1.81-3.97 2.25-5.91 1.02l-19.98-12.7s-.02 0-.03 0l-2.36 2.94s11.25 7.63 17.88 12.03c1.96 1.3 2.42 3.98 1.01 5.86-1.27 1.69-3.62 2.13-5.42 1.02l-18.85-11.67s-.02 0-.03 0l-1.52 2.13s0 .02 0 .03l16.09 10.87c1.74 1.18 2.12 3.58.82 5.23-1.03 1.32-2.84 1.76-4.36 1.05-4.26-1.98-11.65-5.86-15.14-7.05 0-.01 0-.02 0-.03l.41-.6c2.09-3.04 1.64-7.24-1.21-9.58-1.28-1.04-2.84-1.6-4.46-1.6-.84 0-1.66.15-2.42.44.77-3.21-.45-6.7-3.32-8.68-1.38-.95-2.98-1.45-4.65-1.45-.42 0-.83.03-1.24.1.65-3.13-.58-6.5-3.38-8.42-1.37-.95-2.98-1.45-4.64-1.45-1.95 0-3.8.69-5.26 1.91-.51-1.87-1.64-3.47-3.26-4.58-1.82-1.26-4.07-1.73-6.29-1.28-2.14.43-3.99 1.76-5.23 3.56l-.64.93c-.22-.3-.43-.6-.64-.9-1.68-2.42-3.77-4.51-6.13-6.27l-30.71-22.83s0-.02 0-.03l20.6-30.01s.02 0 .03 0l36.36 24.66s-.03.05-.04.07c-.02.03-.03.05-.04.08l-7.32 12.68c-.35.61-.62 1.24-.81 1.9-.78 2.61-.28 5.42 1.3 7.6.85 1.18 2.01 2.16 3.47 2.83 1.02.47 2.14.72 3.26.76.46.02.92 0 1.44-.07.11-.02.21-.03.31-.05.3-.05.6-.12.89-.19h.01c.02 0 .04 0 .06-.01.33-.09.65-.2.95-.32 1.35-.56 2.53-1.43 3.45-2.58l1.19-1.73 4.43-6.45 1.93-2.39c1.18-1.46 2.96-2.31 4.84-2.31 1.89 0 3.73.32 5.49 1.03 2.95 1.19 5.67 2.84 8.43 4.41 2.88 1.63 5.71 3.33 8.5 5.13l.15.1 26.79 17.14c2.29 1.46 2.8 4.59 1.11 6.71-1.42 1.77-3.92 2.24-5.88 1.09l-18.8-11.04s-1.76 2.13-1.75 2.13"/><path d="m218.62 42.13c-.45 1.93.35 4.02 2.11 5.14.8.51 1.71.76 2.6.76.2 0 .41-.02.61-.04.06 0 .11-.02.17-.03.17-.03.33-.06.49-.11.01 0 .02 0 .03-.01.94-.26 1.8-.79 2.45-1.6l.55-.67 9.62-11.86c1.43-1.76 3.62-2.38 5.82-2.39h.06c3.28 0 6.57.9 9.42 2.54 5.81 3.34 26.22 16.31 33.91 21.22 1.04.66 2.21.98 3.38.98s2.39-.33 3.43-1.01c.5-.32 1.01-.69 1.52-1.1l32.26-23.31-21.38-30.64-28.16 19.65c-.42.29-.9.46-1.41.53-1.04.16-2.35.27-4.02.27-3.57 0-8.74-.5-16.2-2.05-2.78-.57-5.35-.82-7.7-.82-10.77 0-17.15 5.25-19.97 8.33-1.17 1.28-1.73 2.19-1.73 2.19l-7.32 12.68c-.25.43-.42.88-.52 1.34"/><path d="m212.52 71.56 2.66-3.87c1.53-2.21.96-5.24-1.25-6.76-.84-.58-1.8-.86-2.75-.86-1.55 0-3.07.74-4.01 2.11l-1.49 2.17-2.06 3c-1.53 2.21-.96 5.24 1.25 6.76.84.58 1.8.85 2.75.85 1.54 0 3.07-.74 4.01-2.11z"/><path d="m227.1 65.04c-.85-.58-1.81-.86-2.75-.86-1.54 0-3.07.74-4.01 2.11l-5.2 7.56-2.97 4.31c-1.53 2.21-.96 5.23 1.24 6.76.85.59 1.81.86 2.75.86 1.54 0 3.07-.74 4.01-2.11l2.78-4.03 5.4-7.84c1.52-2.21.96-5.24-1.25-6.76"/><path d="m236.37 74.81c-.84-.58-1.8-.86-2.75-.86-1.54 0-3.07.74-4.01 2.11l-3.73 5.42-1.26 1.84c-1.52 2.21-.96 5.23 1.24 6.76.85.58 1.81.85 2.75.85 1.55 0 3.07-.73 4.01-2.1l1.84-2.68 3.16-4.59c1.52-2.21.96-5.24-1.25-6.76"/><path d="m246.07 83.75c-.84-.58-1.79-.86-2.74-.86h-.02c-1.5 0-2.99.7-3.93 2-.03.03-.06.07-.08.11l-2.11 3.07-1.44 2.1s-.06.08-.07.12c-.53.81-.79 1.72-.79 2.63 0 1.55.74 3.07 2.11 4.01.84.57 1.8.85 2.75.85 1.54 0 3.07-.74 4.01-2.1l2.68-3.89.88-1.28c1.52-2.21.96-5.23-1.25-6.76"/></g><g clip-path="url(#c)" opacity=".86"><path d="m407.21 21.62c4.82 0 8.73-3.91 8.73-8.73s-3.91-8.73-8.73-8.73-8.73 3.91-8.73 8.73 3.91 8.73 8.73 8.73"/><path d="m420.91 28.92c-.16-1.44-1.37-2.53-2.82-2.53h-21.76c-1.45 0-2.66 1.09-2.82 2.53l-3.34 28.69c-.29 2.63 1.77 4.92 4.41 4.92h3.6l2.29 34.12c.05.81.73 1.44 1.54 1.44h9.57c.8 0 1.47-.61 1.54-1.41l2.87-34.14h3.84c2.64 0 4.7-2.29 4.41-4.92l-3.34-28.69z"/><path d="m443.41 22.33c3.96 0 7.18-3.21 7.18-7.18s-3.21-7.18-7.18-7.18-7.18 3.21-7.18 7.18 3.21 7.18 7.18 7.18"/><path d="m454.68 28.45c-.13-1.18-1.13-2.08-2.32-2.08h-17.9c-1.19 0-2.19.9-2.32 2.08l-2.75 23.26c-.24 2.16 1.46 4.05 3.63 4.05h2.97l1.88 27.94c.05.67.6 1.18 1.27 1.18h7.87c.66 0 1.21-.5 1.26-1.16l2.36-27.96h3.16c2.17 0 3.86-1.89 3.63-4.05l-2.75-23.26z"/><path d="m454.94 89.06h-23.06c-.81 0-1.47.66-1.47 1.47v6.46c0 .81.66 1.47 1.47 1.47h23.06c.81 0 1.47-.66 1.47-1.47v-6.46c0-.81-.66-1.47-1.47-1.47"/><path d="m473.92 21.8c3.44 0 6.22-2.79 6.22-6.22s-2.79-6.22-6.22-6.22-6.22 2.79-6.22 6.22 2.79 6.22 6.22 6.22"/><path d="m464.91 50.61h2.58l1.63 23.99c.04.58.52 1.03 1.1 1.03h6.83c.57 0 1.05-.44 1.1-1.01l2.04-24.01h2.75c1.88 0 3.35-1.64 3.15-3.51l-2.38-19.92c-.11-1.03-.98-1.8-2.01-1.8h-15.52c-1.03 0-1.9.78-2.01 1.8l-2.38 19.92c-.2 1.87 1.26 3.51 3.15 3.51"/><path d="m484.86 80.06h-21.88c-1.14 0-2.06.92-2.06 2.06v14.28c0 1.14.92 2.06 2.06 2.06h21.88c1.14 0 2.06-.92 2.06-2.06v-14.28c0-1.14-.92-2.06-2.06-2.06"/></g></g></svg>