<svg viewBox="0 0 113 111.46" xmlns="http://www.w3.org/2000/svg"><path d="m57.14 20.06c-13.61 0-24.68-4.5-24.68-10.03s11.07-10.03 24.68-10.03c10.2 0 19.49 2.56 23.11 6.37 1.11 1.17 1.64 2.4 1.57 3.66-.13 2.57-2.81 5.12-7.35 7-4.69 1.95-10.85 3.02-17.33 3.02zm0-19.92c-13.54 0-24.55 4.44-24.55 9.89s11.01 9.89 24.55 9.89c6.47 0 12.6-1.07 17.28-3.01 4.49-1.86 7.14-4.37 7.27-6.89h.07s-.07 0-.07 0c.06-1.22-.45-2.42-1.54-3.56-3.6-3.78-12.84-6.32-23.01-6.32zm-.03 111.32c-6.59 0-12.78-1.03-17.42-2.9-4.67-1.88-7.25-4.41-7.25-7.1 0-5.54 11.08-10.05 24.71-10.05s24.71 4.51 24.71 10.05c0 2.7-2.59 5.22-7.28 7.1-4.66 1.87-10.86 2.9-17.46 2.9zm.03-19.87c-13.52 0-24.52 4.43-24.52 9.87s10.99 9.82 24.49 9.82 24.56-4.41 24.56-9.82-11-9.87-24.52-9.87z"/><path d="m57.14 35.19c-11.83 0-22.89-1.27-31.14-3.57-8.28-2.31-12.84-5.42-12.84-8.76 0-4.14 6.97-6.67 12.82-8.07 7.86-1.88 18.63-2.97 31.16-3.16 20.23-.31 37.25 2.85 42.34 7.87 1.05 1.04 1.59 2.14 1.59 3.28 0 3.34-4.55 6.47-12.82 8.8-8.25 2.33-19.31 3.61-31.11 3.61zm2.71-23.44c-.9 0-1.8 0-2.71.02-12.51.19-23.28 1.28-31.13 3.16-8.32 1.99-12.71 4.73-12.71 7.94s4.52 6.33 12.74 8.63c8.24 2.3 19.28 3.57 31.1 3.57s22.83-1.28 31.08-3.61c8.2-2.31 12.72-5.39 12.72-8.67 0-1.1-.52-2.18-1.55-3.19-4.84-4.76-20.54-7.85-39.54-7.85zm-2.62 99.71c-3.8 0-6.78-1.19-6.78-2.71s2.98-2.71 6.78-2.71 6.78 1.19 6.78 2.71-2.98 2.71-6.78 2.71zm0-5.24c-3.64 0-6.6 1.13-6.6 2.53s2.96 2.53 6.6 2.53 6.6-1.13 6.6-2.53-2.96-2.53-6.6-2.53z"/><path d="m57.11 111.44c-14.92 0-28.94-5.79-39.48-16.3-10.54-10.52-16.34-24.51-16.34-39.4s5.81-28.89 16.36-39.41c10.55-10.53 24.58-16.33 39.5-16.33s28.95 5.8 39.5 16.33 16.36 24.53 16.36 39.42-5.82 28.88-16.38 39.39-24.59 16.3-39.51 16.3zm.04-111.3c-14.89 0-28.88 5.78-39.4 16.28-10.53 10.51-16.32 24.47-16.32 39.32s5.79 28.81 16.3 39.3 24.5 16.26 39.38 16.26 28.89-5.78 39.42-16.26c10.54-10.49 16.34-24.45 16.34-39.3s-5.8-28.82-16.32-39.32-24.52-16.28-39.4-16.28z"/><path d="m63.97 108.79-.11-.08c4.11-5.41 6.03-22.24 6.03-52.96 0-22.69-.72-46.71-6.02-52.82l.1-.09c5.34 6.15 6.06 30.2 6.06 52.91 0 30.76-1.92 47.62-6.06 53.05zm-19.57-52.93s-.09.01-.14.03v-.14c0-14.68.42-25.89 1.27-34.26 1.01-9.87 2.64-15.97 4.96-18.65l.1.09c-2.31 2.66-3.92 8.73-4.93 18.57-.86 8.36-1.27 19.57-1.27 34.25v.12zm6.2 52.85-.11.08c-4.02-5.12-6.06-21.28-6.22-49.37.04.01.09.02.14.03.16 28.04 2.19 44.17 6.19 49.26z"/><path d="m57.23 5.68c-2.75 0-5.28-.7-6.29-1.74-.32-.34-.48-.69-.47-1.06.03-.93 1.74-1.68 2.76-2.04 1.4-.5 3.08-.84 4-.84 3.73.05 6.75 1.34 6.75 2.88s-3.03 2.8-6.76 2.8zm-.04-5.54c-1.77 0-6.53 1.33-6.57 2.74-.01.33.14.65.43.96.98 1.02 3.47 1.7 6.19 1.7 3.65 0 6.62-1.19 6.62-2.66s-2.97-2.7-6.63-2.74z"/><circle cx="71.26" cy="4.42" r="1.37"/><circle cx="66.3" cy="103.51" fill="#027353" r="2.08"/><circle cx="1.36" cy="56.86" fill="#611ca6" r="1.36"/><path d="m96.99 57.86c-6.25 2.08-14.15 3.67-23.03 4.57-.03.05-.06.1-.09.15 8.23-.82 15.76-2.25 22.04-4.23.37-.12.74-.24 1.1-.36 0-.04-.02-.09-.02-.14zm-1.09-23.91c-10.32-3.24-24.04-5.03-38.64-5.03-30.29 0-54.93 7.73-54.93 17.23s24.64 17.23 54.93 17.23c4.32 0 8.56-.16 12.67-.46-.04-.04-.08-.09-.12-.13-4.18.31-8.36.46-12.55.46-30.21 0-54.8-7.67-54.8-17.09s24.58-17.09 54.8-17.09 54.55 7.67 54.55 17.09c0 3.8-3.98 7.31-10.7 10.16.1 0 .2.02.3.03 6.84-2.93 10.54-6.47 10.54-10.18 0-4.62-5.7-8.95-16.04-12.2z"/><path d="m90.85 75.5c-.12.47-.24.93-.37 1.4-1.81 6.63-4.39 12.61-7.68 17.77-6.83 10.73-15.86 16.64-25.44 16.64-4.86 0-9.6-1.51-14.09-4.5-4.32-2.87-8.21-6.95-11.57-12.14-3.35-5.17-5.98-11.15-7.83-17.77-1.91-6.84-2.88-14.02-2.88-21.35s.97-14.49 2.88-21.3c1.85-6.58 4.48-12.52 7.83-17.65 3.36-5.14 7.25-9.19 11.57-12.02 4.49-2.95 9.23-4.44 14.09-4.44 9.59 0 18.62 5.85 25.44 16.46 3.29 5.12 5.87 11.06 7.68 17.65 1.86 6.8 2.81 13.96 2.81 21.3 0 5.74-.58 11.38-1.72 16.83h.14c1.14-5.46 1.72-11.1 1.72-16.84 0-7.35-.95-14.53-2.82-21.33-1.81-6.6-4.4-12.55-7.7-17.68-6.84-10.66-15.91-16.53-25.55-16.53-4.89 0-9.66 1.5-14.17 4.46-4.33 2.85-8.24 6.9-11.6 12.06-3.35 5.14-5.99 11.09-7.84 17.68-1.91 6.82-2.88 14-2.88 21.33s.97 14.53 2.88 21.39c1.85 6.63 4.49 12.62 7.85 17.8 3.37 5.21 7.28 9.31 11.61 12.18 4.52 3 9.28 4.52 14.17 4.52 9.62 0 18.7-5.93 25.55-16.7 3.29-5.17 5.88-11.16 7.69-17.8.13-.47.25-.95.38-1.43-.05 0-.09 0-.14 0z"/><path d="m88.45 79.32c-4.82-1.35-10.55-2.34-16.81-2.95 0 .05 0 .09-.01.14 17.27 1.67 29.7 6.25 29.7 11.62 0 3.24-4.46 6.01-12.91 8.02-8.01 1.91-19.12 2.96-31.28 2.96s-23.26-1.05-31.28-2.96c-8.44-2.01-12.91-4.79-12.91-8.02 0-6.78 19.82-12.3 44.18-12.3 2.93 0 5.79.08 8.55.23 0-.06 0-.1 0-.14-2.79-.15-5.65-.23-8.56-.23-11.83 0-22.95 1.29-31.31 3.63-8.39 2.35-13.01 5.48-13.01 8.81s4.5 6.13 13.01 8.15c8.02 1.91 19.14 2.97 31.31 2.97s23.28-1.05 31.31-2.97c8.51-2.03 13.01-4.85 13.01-8.15s-4.62-6.47-13.01-8.81zm-35.46-24.17c1.4 0 2.81.01 4.23.05 8.63.19 16.8.83 24.05 1.81v-.13c-7.25-.98-15.41-1.63-24.04-1.82-10.08-.22-19.79.36-28.15 1.54.05.04.11.07.15.11 7.14-1.01 15.27-1.57 23.76-1.57z"/><path d="m83.11 57.14v.13c16.7 2.45 28.06 6.72 28.09 11.34 0 1.09-.52 2.18-1.58 3.24-2.86 2.87-9.57 5.47-18.9 7.32-9.66 1.91-21.25 2.9-33.51 2.86-14.38-.05-27.98-1.56-38.3-4.25-10.06-2.63-15.84-6.16-15.84-9.7 0-1.1.55-2.2 1.64-3.27 3.12-3.05 10.2-5.59 19.53-7.3.03-.05.07-.1.1-.15-9.42 1.72-16.58 4.27-19.73 7.35-1.12 1.09-1.68 2.22-1.68 3.36 0 3.66 5.66 7.15 15.94 9.83 10.33 2.7 23.95 4.21 38.34 4.25h.73c12 0 23.33-.99 32.81-2.86 9.35-1.85 16.09-4.46 18.97-7.35 1.08-1.09 1.62-2.21 1.62-3.34-.04-4.68-11.45-9-28.23-11.47z"/><circle cx="71.26" cy="4.42" fill="#611ca6" r="1.37"/><circle cx="101.07" cy="89.73" fill="#611ca6" r="1.37"/><circle cx="29.26" cy="90.44" fill="#4a44f2" r="2.08"/><circle cx="27.76" cy="23.58" fill="#027353" r="1.37"/><circle cx="85.99" cy="22.07" fill="#4a44f2" r="2.08"/><path d="m57.14 20.06c-13.61 0-24.68-4.5-24.68-10.03s11.07-10.03 24.68-10.03c10.2 0 19.49 2.56 23.11 6.37 1.11 1.17 1.64 2.4 1.57 3.66-.13 2.57-2.81 5.12-7.35 7-4.69 1.95-10.85 3.02-17.33 3.02zm0-19.92c-13.54 0-24.55 4.44-24.55 9.89s11.01 9.89 24.55 9.89c6.47 0 12.6-1.07 17.28-3.01 4.49-1.86 7.14-4.37 7.27-6.89h.07s-.07 0-.07 0c.06-1.22-.45-2.42-1.54-3.56-3.6-3.78-12.84-6.32-23.01-6.32zm-.03 111.32c-6.59 0-12.78-1.03-17.42-2.9-4.67-1.88-7.25-4.41-7.25-7.1 0-5.54 11.08-10.05 24.71-10.05s24.71 4.51 24.71 10.05c0 2.7-2.59 5.22-7.28 7.1-4.66 1.87-10.86 2.9-17.46 2.9zm.03-19.87c-13.52 0-24.52 4.43-24.52 9.87s10.99 9.82 24.49 9.82 24.56-4.41 24.56-9.82-11-9.87-24.52-9.87z"/><path d="m57.14 35.19c-11.83 0-22.89-1.27-31.14-3.57-8.28-2.31-12.84-5.42-12.84-8.76 0-4.14 6.97-6.67 12.82-8.07 7.86-1.88 18.63-2.97 31.16-3.16 20.23-.31 37.25 2.85 42.34 7.87 1.05 1.04 1.59 2.14 1.59 3.28 0 3.34-4.55 6.47-12.82 8.8-8.25 2.33-19.31 3.61-31.11 3.61zm2.71-23.44c-.9 0-1.8 0-2.71.02-12.51.19-23.28 1.28-31.13 3.16-8.32 1.99-12.71 4.73-12.71 7.94s4.52 6.33 12.74 8.63c8.24 2.3 19.28 3.57 31.1 3.57s22.83-1.28 31.08-3.61c8.2-2.31 12.72-5.39 12.72-8.67 0-1.1-.52-2.18-1.55-3.19-4.84-4.76-20.54-7.85-39.54-7.85zm-2.62 99.71c-3.8 0-6.78-1.19-6.78-2.71s2.98-2.71 6.78-2.71 6.78 1.19 6.78 2.71-2.98 2.71-6.78 2.71zm0-5.24c-3.64 0-6.6 1.13-6.6 2.53s2.96 2.53 6.6 2.53 6.6-1.13 6.6-2.53-2.96-2.53-6.6-2.53z"/><path d="m57.11 111.44c-14.92 0-28.94-5.79-39.48-16.3-10.54-10.52-16.34-24.51-16.34-39.4s5.81-28.89 16.36-39.41c10.55-10.53 24.58-16.33 39.5-16.33s28.95 5.8 39.5 16.33 16.36 24.53 16.36 39.42-5.82 28.88-16.38 39.39-24.59 16.3-39.51 16.3zm.04-111.3c-14.89 0-28.88 5.78-39.4 16.28-10.53 10.51-16.32 24.47-16.32 39.32s5.79 28.81 16.3 39.3 24.5 16.26 39.38 16.26 28.89-5.78 39.42-16.26c10.54-10.49 16.34-24.45 16.34-39.3s-5.8-28.82-16.32-39.32-24.52-16.28-39.4-16.28z"/><path d="m63.97 108.79-.11-.08c4.11-5.41 6.03-22.24 6.03-52.96 0-22.69-.72-46.71-6.02-52.82l.1-.09c5.34 6.15 6.06 30.2 6.06 52.91 0 30.76-1.92 47.62-6.06 53.05zm-19.57-52.93s-.09.01-.14.03v-.14c0-14.68.42-25.89 1.27-34.26 1.01-9.87 2.64-15.97 4.96-18.65l.1.09c-2.31 2.66-3.92 8.73-4.93 18.57-.86 8.36-1.27 19.57-1.27 34.25v.12zm6.2 52.85-.11.08c-4.02-5.12-6.06-21.28-6.22-49.37.04.01.09.02.14.03.16 28.04 2.19 44.17 6.19 49.26z"/><path d="m57.23 5.68c-2.75 0-5.28-.7-6.29-1.74-.32-.34-.48-.69-.47-1.06.03-.93 1.74-1.68 2.76-2.04 1.4-.5 3.08-.84 4-.84 3.73.05 6.75 1.34 6.75 2.88s-3.03 2.8-6.76 2.8zm-.04-5.54c-1.77 0-6.53 1.33-6.57 2.74-.01.33.14.65.43.96.98 1.02 3.47 1.7 6.19 1.7 3.65 0 6.62-1.19 6.62-2.66s-2.97-2.7-6.63-2.74z"/><circle cx="71.26" cy="4.42" r="1.37"/><circle cx="66.3" cy="103.51" fill="#027353" r="2.08"/><circle cx="1.36" cy="56.86" fill="#611ca6" r="1.36"/><path d="m96.99 57.86c-6.25 2.08-14.15 3.67-23.03 4.57-.03.05-.06.1-.09.15 8.23-.82 15.76-2.25 22.04-4.23.37-.12.74-.24 1.1-.36 0-.04-.02-.09-.02-.14zm-1.09-23.91c-10.32-3.24-24.04-5.03-38.64-5.03-30.29 0-54.93 7.73-54.93 17.23s24.64 17.23 54.93 17.23c4.32 0 8.56-.16 12.67-.46-.04-.04-.08-.09-.12-.13-4.18.31-8.36.46-12.55.46-30.21 0-54.8-7.67-54.8-17.09s24.58-17.09 54.8-17.09 54.55 7.67 54.55 17.09c0 3.8-3.98 7.31-10.7 10.16.1 0 .2.02.3.03 6.84-2.93 10.54-6.47 10.54-10.18 0-4.62-5.7-8.95-16.04-12.2z"/><path d="m90.85 75.5c-.12.47-.24.93-.37 1.4-1.81 6.63-4.39 12.61-7.68 17.77-6.83 10.73-15.86 16.64-25.44 16.64-4.86 0-9.6-1.51-14.09-4.5-4.32-2.87-8.21-6.95-11.57-12.14-3.35-5.17-5.98-11.15-7.83-17.77-1.91-6.84-2.88-14.02-2.88-21.35s.97-14.49 2.88-21.3c1.85-6.58 4.48-12.52 7.83-17.65 3.36-5.14 7.25-9.19 11.57-12.02 4.49-2.95 9.23-4.44 14.09-4.44 9.59 0 18.62 5.85 25.44 16.46 3.29 5.12 5.87 11.06 7.68 17.65 1.86 6.8 2.81 13.96 2.81 21.3 0 5.74-.58 11.38-1.72 16.83h.14c1.14-5.46 1.72-11.1 1.72-16.84 0-7.35-.95-14.53-2.82-21.33-1.81-6.6-4.4-12.55-7.7-17.68-6.84-10.66-15.91-16.53-25.55-16.53-4.89 0-9.66 1.5-14.17 4.46-4.33 2.85-8.24 6.9-11.6 12.06-3.35 5.14-5.99 11.09-7.84 17.68-1.91 6.82-2.88 14-2.88 21.33s.97 14.53 2.88 21.39c1.85 6.63 4.49 12.62 7.85 17.8 3.37 5.21 7.28 9.31 11.61 12.18 4.52 3 9.28 4.52 14.17 4.52 9.62 0 18.7-5.93 25.55-16.7 3.29-5.17 5.88-11.16 7.69-17.8.13-.47.25-.95.38-1.43-.05 0-.09 0-.14 0z"/><path d="m83.11 57.14v.13c16.7 2.45 28.06 6.72 28.09 11.34 0 1.09-.52 2.18-1.58 3.24-2.86 2.87-9.57 5.47-18.9 7.32-9.66 1.91-21.25 2.9-33.51 2.86-14.38-.05-27.98-1.56-38.3-4.25-10.06-2.63-15.84-6.16-15.84-9.7 0-1.1.55-2.2 1.64-3.27 3.12-3.05 10.2-5.59 19.53-7.3.03-.05.07-.1.1-.15-9.42 1.72-16.58 4.27-19.73 7.35-1.12 1.09-1.68 2.22-1.68 3.36 0 3.66 5.66 7.15 15.94 9.83 10.33 2.7 23.95 4.21 38.34 4.25h.73c12 0 23.33-.99 32.81-2.86 9.35-1.85 16.09-4.46 18.97-7.35 1.08-1.09 1.62-2.21 1.62-3.34-.04-4.68-11.45-9-28.23-11.47z"/><circle cx="71.26" cy="4.42" fill="#611ca6" r="1.37"/><circle cx="101.07" cy="89.73" fill="#611ca6" r="1.37"/><circle cx="29.26" cy="90.44" fill="#4a44f2" r="2.08"/><circle cx="27.76" cy="23.58" fill="#027353" r="1.37"/><circle cx="85.99" cy="22.07" fill="#4a44f2" r="2.08"/></svg>