<svg viewBox="0 0 128 128" xmlns="http://www.w3.org/2000/svg" xmlns:xlink="http://www.w3.org/1999/xlink"><clipPath id="a"><path d="m6.71 25.19h114.29v91.55h-114.29z"/></clipPath><g clip-path="url(#a)" fill="#611ca6" opacity=".66"><path d="m49.03 62.06c-1.29-6.96-7.39-12.23-14.72-12.23h-12.63c-8.27 0-14.97 6.71-14.97 14.97v32.45h27.58v-13.64c0-9.79 6.12-18.19 14.74-21.55"/><path d="m106.03 49.83h-12.63c-7.33 0-13.43 5.27-14.72 12.23 8.62 3.36 14.74 11.76 14.74 21.55v13.64h27.58v-32.45c0-8.27-6.7-14.97-14.97-14.97"/><path d="m62.79 58.42c8.09.64 14.8-6.07 14.16-14.16-.5-6.37-5.66-11.53-12.03-12.03-8.09-.64-14.8 6.07-14.16 14.16.5 6.37 5.66 11.52 12.03 12.03"/><path d="m78.42 67.04c-2.46-1.21-5.22-1.89-8.14-1.89h-12.86c-2.92 0-5.69.68-8.14 1.9-6.12 3-10.33 9.31-10.33 16.57v30.89c0 1.23 1 2.23 2.23 2.23h45.36c1.23 0 2.23-1 2.23-2.23v-30.89c0-7.27-4.22-13.57-10.34-16.58"/><path d="m99.7 45.3c6.2.49 11.34-4.65 10.85-10.85-.38-4.88-4.34-8.83-9.22-9.22-6.2-.49-11.34 4.65-10.85 10.85.38 4.88 4.34 8.83 9.22 9.22"/><path d="m26.37 45.3c6.2.49 11.34-4.65 10.85-10.85-.38-4.88-4.34-8.83-9.22-9.22-6.2-.49-11.34 4.65-10.85 10.85.38 4.88 4.34 8.83 9.22 9.22"/></g></svg>