<?xml version="1.0" encoding="UTF-8"?>
<svg id="Layer_1" data-name="Layer 1" xmlns="http://www.w3.org/2000/svg" viewBox="0 0 113.73 113.73">
  <g>
    <polygon points="56.87 82.47 32.39 57.99 38.71 51.67 56.87 69.82 75.02 51.67 81.34 57.99 56.87 82.47"/>
    <polygon points="56.87 65.23 32.39 40.75 38.71 34.42 56.87 52.57 75.02 34.42 81.34 40.75 56.87 65.23"/>
  </g>
  <path d="M56.87,113.73C25.51,113.73,0,88.22,0,56.87S25.51,0,56.87,0s56.87,25.51,56.87,56.87-25.51,56.87-56.87,56.87ZM56.87,8.95c-26.42,0-47.92,21.5-47.92,47.92s21.5,47.92,47.92,47.92,47.92-21.5,47.92-47.92S83.29,8.95,56.87,8.95Z"/>
</svg>