<?xml version="1.0" encoding="UTF-8"?>
<svg id="Layer_1" data-name="Layer 1" xmlns="http://www.w3.org/2000/svg" viewBox="0 0 256 256">
  <defs>
    <style>
      .cls-1 {
        fill: #611ca6;
      }
    </style>
  </defs>
  <path class="cls-1" d="M83.91,102.12c9.04,0,17.26,4.92,21.59,12.6-12.77,7.79-20.79,21.81-20.79,36.96v21.83h-33.41v-46.62c0-13.65,11.12-24.76,24.78-24.76h7.82M83.91,97.12h-7.82c-16.46,0-29.78,13.33-29.78,29.76v48.06c0,1.95,1.59,3.56,3.56,3.56h39.86v-26.83c0-15.38,9.13-28.69,22.26-34.76-4.09-11.55-15.11-19.8-28.07-19.8h0Z"/>
  <path class="cls-1" d="M193.21,102.12c13.67,0,24.78,11.11,24.78,24.76v46.62h-33.41v-21.83c0-15.15-8.02-29.17-20.79-36.96,4.33-7.67,12.56-12.6,21.59-12.6h7.82M193.21,97.12h-7.82c-12.96,0-23.98,8.25-28.07,19.8,13.14,6.06,22.26,19.37,22.26,34.76v26.83h39.86c1.97,0,3.56-1.61,3.56-3.56v-48.06c0-16.43-13.33-29.76-29.78-29.76h0Z"/>
  <g>
    <path class="cls-1" d="M99.95,199.71c-1.27,0-2.3-1.03-2.3-2.3v-45.75c0-16.73,13.61-30.33,30.33-30.33h13.33c16.73,0,30.33,13.61,30.33,30.33v45.75c0,1.27-1.03,2.3-2.3,2.3h-69.4Z"/>
    <path class="cls-1" d="M141.31,122.83c15.9,0,28.83,12.93,28.83,28.83v45.75c0,.44-.36.8-.8.8h-69.4c-.44,0-.8-.36-.8-.8v-45.75c0-15.9,12.93-28.83,28.83-28.83h13.33M141.31,119.83h-13.33c-17.58,0-31.83,14.25-31.83,31.83v45.75c0,2.1,1.7,3.8,3.8,3.8h69.4c2.1,0,3.8-1.7,3.8-3.8v-45.75c0-17.58-14.25-31.83-31.83-31.83h0Z"/>
  </g>
  <g>
    <path class="cls-1" d="M134.65,113.28c-11.78,0-21.36-9.58-21.36-21.36s9.58-21.36,21.36-21.36,21.36,9.58,21.36,21.36-9.58,21.36-21.36,21.36Z"/>
    <path class="cls-1" d="M134.65,72.05c10.95,0,19.86,8.91,19.86,19.86s-8.91,19.86-19.86,19.86-19.86-8.91-19.86-19.86,8.91-19.86,19.86-19.86M134.65,69.05c-12.63,0-22.86,10.24-22.86,22.86s10.24,22.86,22.86,22.86,22.86-10.24,22.86-22.86-10.24-22.86-22.86-22.86h0Z"/>
  </g>
  <g>
    <path class="cls-1" d="M79.15,91.73c-8.55,0-15.51-6.96-15.51-15.51s6.96-15.51,15.51-15.51,15.51,6.96,15.51,15.51-6.96,15.51-15.51,15.51Z"/>
    <path class="cls-1" d="M79.15,62.22c7.72,0,14.01,6.28,14.01,14.01s-6.28,14.01-14.01,14.01-14.01-6.28-14.01-14.01,6.28-14.01,14.01-14.01M79.15,59.22c-9.39,0-17.01,7.61-17.01,17.01s7.61,17.01,17.01,17.01,17.01-7.61,17.01-17.01-7.61-17.01-17.01-17.01h0Z"/>
  </g>
  <g>
    <path class="cls-1" d="M190.15,91.73c-8.55,0-15.51-6.96-15.51-15.51s6.96-15.51,15.51-15.51,15.51,6.96,15.51,15.51-6.96,15.51-15.51,15.51Z"/>
    <path class="cls-1" d="M190.15,62.22c7.72,0,14.01,6.28,14.01,14.01s-6.28,14.01-14.01,14.01-14.01-6.28-14.01-14.01,6.28-14.01,14.01-14.01M190.15,59.22c-9.39,0-17.01,7.61-17.01,17.01s7.61,17.01,17.01,17.01,17.01-7.61,17.01-17.01-7.61-17.01-17.01-17.01h0Z"/>
  </g>
</svg>