<?xml version="1.0" encoding="UTF-8"?>
<svg id="Layer_1" data-name="Layer 1" xmlns="http://www.w3.org/2000/svg" viewBox="0 0 256 256">
  <defs>
    <style>
      .cls-1 {
        stroke: #4a44f2;
        stroke-linecap: round;
        stroke-linejoin: round;
        stroke-width: 6px;
      }

      .cls-1, .cls-2 {
        fill: none;
      }

      .cls-2 {
        stroke: blue;
        stroke-miterlimit: 10;
        stroke-width: 3px;
      }

      .cls-3 {
        fill: #fff;
      }

      .cls-4 {
        fill: #8b3dd9;
      }

      .cls-5 {
        fill: #daa2f2;
      }

      .cls-6 {
        fill: #4f2efc;
      }
    </style>
  </defs>
  <rect class="cls-4" x="133.89" y="76.59" width="37.86" height="12.3" rx="2.58" ry="2.58"/>
  <path class="cls-6" d="M221.24,204.48c-2.85,3.56-7.41,3.5-8.18,3.49-2.99-.09-5.09-1.48-7.44-3.09-4-2.73-6.35-5.82-7.25-7.03-10.79-14.4-12.24-17.68-17.07-21.49-1.12-.88-2.62-1.95-4.56-3.02,5.11-2.95,9.37-7.22,12.34-12.32,1.33,2.26,2.66,3.99,3.75,5.25,3.78,4.44,6.9,5.94,20.83,16.42,1.21.9,4.3,3.28,6.85,7.32,2.19,3.49,2.5,5.89,2.57,6.44.16,1.43.57,5.04-1.85,8.04Z"/>
  <polyline class="cls-1" points="171.75 175.73 171.75 199.8 65.31 199.8 65.31 48.66 150.81 48.66 171.75 69.6 171.75 112.1"/>
  <path class="cls-5" d="M193.69,143.93c0,6.23-1.67,12.07-4.61,17.09-2.97,5.11-7.23,9.37-12.34,12.32-5.01,2.93-10.86,4.61-17.07,4.61-18.8,0-34.04-15.24-34.04-34.02s15.24-34.04,34.04-34.04,34.02,15.24,34.02,34.04Z"/>
  <circle class="cls-3" cx="159.66" cy="143.92" r="21.71"/>
  <line class="cls-2" x1="148.9" y1="143.92" x2="170.41" y2="143.92"/>
</svg>