<?xml version="1.0" encoding="UTF-8"?>
<svg id="Layer_1" data-name="Layer 1" xmlns="http://www.w3.org/2000/svg" viewBox="0 0 256 256">
  <defs>
    <style>
      .cls-1 {
        fill: blue;
      }

      .cls-2 {
        stroke: #611ca6;
        stroke-linejoin: round;
        stroke-width: 6px;
      }

      .cls-2, .cls-3 {
        fill: none;
      }

      .cls-4 {
        fill: #66aef8;
      }

      .cls-3 {
        stroke: #66aef8;
        stroke-linecap: round;
        stroke-miterlimit: 10;
        stroke-width: 3px;
      }

      .cls-5 {
        fill: #d29eea;
      }

      .cls-6 {
        fill: #8b3dd9;
      }
    </style>
  </defs>
  <path class="cls-2" d="M177.4,127.88l25.04,76.42h-115.04c-16.6-50.65-33.2-101.31-49.8-151.96h115.04l11.12,33.94"/>
  <line class="cls-3" x1="78.4" y1="121.22" x2="102.37" y2="121.22"/>
  <line class="cls-3" x1="74.53" y1="105.14" x2="130.5" y2="105.14"/>
  <line class="cls-3" x1="68.88" y1="90.25" x2="132.65" y2="90.25"/>
  <line class="cls-3" x1="64.41" y1="73.58" x2="140.33" y2="73.58"/>
  <path class="cls-6" d="M215.99,54.63c2.54,0,4.97,1.01,6.67,2.78,2.9,3.01,3.37,7.68,1.16,11.36l-.18.3-.14.32c-7.87,18.48-19.9,35.04-34.78,47.88-8.8,7.59-18.61,13.96-29.2,18.97l-16.02-16.02c10.97-19.83,25.42-36.45,42.99-49.42,7.36-5.43,15.3-10.22,23.59-14.24l.3-.15.28-.18c1.58-1.04,3.42-1.6,5.31-1.6M215.99,49.63c-2.78,0-5.6.79-8.07,2.43-7.59,3.67-15.9,8.45-24.39,14.72-24.33,17.97-38.41,39.54-46.18,54.35l21.11,21.11c9.35-4.13,21.41-10.7,33.55-21.18,20.54-17.73,31.02-37.75,36.11-49.71,3.38-5.63,2.58-12.81-1.85-17.41-2.73-2.83-6.47-4.31-10.28-4.31h0Z"/>
  <path class="cls-1" d="M141.69,90.16c14.26-.68,18.68-6.94,25.69-18.08,2.54-3.9,4.03-8.24,7.47-11.68,10.43-9.6,22.64-5.36,32.38,2.74,7.05,5.81,13.2,12.58,18.63,19.88-3.17-3.23-6.39-6.4-9.73-9.43-8.74-7.64-21.6-19.83-34.02-14.43-4.1,1.63-6.86,4.56-8.95,8.48-3.42,5.94-7.31,11.68-12.12,16.65-5.08,4.88-12.59,6.63-19.35,5.86h0Z"/>
  <path class="cls-4" d="M94.6,165.38c3.55,2.43,6.67,5.32,9.72,8.31,0,0-1.41,0-1.41,0,3.05-3,6.17-5.89,9.72-8.31-1.21,1.8-2.56,3.45-3.96,5.06-1.61,1.87-3.34,3.63-5.06,5.38-3.24-3.28-6.4-6.61-9.02-10.44h0Z"/>
  <path class="cls-5" d="M137.34,121.11l21.11,21.11c-19.6,3.59-22.67,21.83-22.67,21.83l-16.63-.02-.55-.55,6.53-6.53c.72.35,1.53.55,2.4.55,3.02,0,5.47-2.45,5.47-5.47,0-3.02-2.47-5.45-5.47-5.47-3.02,0-5.47,2.45-5.47,5.47,0,.87.2,1.68.55,2.4l-6.53,6.53-.55-.55-.02-16.63s18.22-3.09,21.83-22.67Z"/>
</svg>